<svg width="20" height="16" viewBox="0 0 20 16" fill="none" xmlns="http://www.w3.org/2000/svg">
<path d="M9.10871 9.7255C8.52903 10.2515 8.17478 10.9809 8.11984 11.7617L7.96218 14.0027C7.92378 14.5484 8.383 14.9702 8.76912 14.5826C9.98588 13.4076 11.8736 13.2839 13.2333 14.2901L15.2459 15.7794C16.0471 16.2306 16.6116 15.993 16.8277 15.0346L19.6951 1.45767C19.6951 1.45731 19.6953 1.45698 19.6956 1.45672C19.6958 1.45646 19.696 1.45611 19.6961 1.45575C19.9499 0.259376 19.2675 -0.208429 18.4871 0.0851239L1.63208 6.60589C0.481759 7.05709 0.499176 7.70508 1.43653 7.99868L3.97627 8.79694C5.09849 9.14966 6.31908 8.99052 7.31334 8.36186L15.755 3.02431C16.226 2.70911 16.6543 2.88351 16.302 3.19871L9.10871 9.7255Z" fill="white"/>
</svg>
