<svg width="24" height="15" viewBox="0 0 24 15" fill="none" xmlns="http://www.w3.org/2000/svg">
<path d="M11.7432 13.9696H13.1773C13.1773 13.9696 13.6108 13.9216 13.8314 13.6831C14.0354 13.4641 14.0279 13.0531 14.0279 13.0531C14.0279 13.0531 13.9994 11.1284 14.8934 10.8449C15.774 10.5659 16.9051 12.705 18.1037 13.5286C19.0097 14.1511 19.6983 14.0146 19.6983 14.0146L22.904 13.9696C22.904 13.9696 24.5811 13.8661 23.7861 12.5475C23.7216 12.4395 23.3225 11.5724 21.4024 9.79032C19.3923 7.92418 19.6623 8.2272 22.0835 5.00047C23.5581 3.03532 24.1476 1.83523 23.9631 1.3222C23.7876 0.83316 22.703 0.962169 22.703 0.962169L19.0967 0.983171C19.0967 0.983171 18.8297 0.947168 18.6302 1.06568C18.4367 1.18269 18.3122 1.45271 18.3122 1.45271C18.3122 1.45271 17.7406 2.97382 16.9786 4.26691C15.372 6.99561 14.7284 7.13962 14.4659 6.97011C13.8554 6.57558 14.0084 5.38299 14.0084 4.53693C14.0084 1.89224 14.4089 0.789657 13.2268 0.504636C12.8338 0.410129 12.5458 0.347124 11.5422 0.336623C10.2551 0.323122 9.16451 0.341124 8.54796 0.642646C8.13693 0.843661 7.82041 1.29219 8.01392 1.3177C8.25244 1.3492 8.79248 1.46321 9.079 1.85323C9.44953 2.35577 9.43603 3.48685 9.43603 3.48685C9.43603 3.48685 9.64904 6.59958 8.93949 6.98661C8.45196 7.25213 7.78441 6.71059 6.3518 4.23391C5.61825 2.96632 5.06321 1.56371 5.06321 1.56371C5.06321 1.56371 4.9567 1.30269 4.76618 1.16318C4.53517 0.993672 4.21114 0.939668 4.21114 0.939668L0.781892 0.960669C0.781892 0.960669 0.267355 0.975671 0.0783406 1.19919C-0.0896717 1.3987 0.0648396 1.80973 0.0648396 1.80973C0.0648396 1.80973 2.75004 8.09069 5.78926 11.2574C8.57796 14.1601 11.7432 13.9696 11.7432 13.9696Z" fill="white"/>
</svg>
