<svg width="36" height="36" viewBox="0 0 36 36" fill="none" xmlns="http://www.w3.org/2000/svg">
<path fill-rule="evenodd" clip-rule="evenodd" d="M18.1229 3.50203C18.8586 3.5275 19.7701 3.79859 20.3089 4.54112C20.3604 4.61207 20.4148 4.69116 20.46 4.75689L20.5032 4.81942C20.5609 4.90249 20.606 4.96474 20.6481 5.01653C20.7108 5.09354 20.7437 5.11759 20.7501 5.12197C23.7076 6.4017 25.5917 8.41083 26.2345 10.6819C26.4368 11.3964 26.1764 12.0928 25.7274 12.5418L25.2537 13.0155C25.0872 13.182 24.8945 13.316 24.6852 13.4137V15.9088V15.9535L24.6812 15.9981C24.5136 17.8672 23.6399 19.2959 22.3893 20.2355C21.1588 21.16 19.6097 21.5796 18.0936 21.56C15.0985 21.5213 11.84 19.7148 11.3243 16.048L11.3146 15.9788V15.9088V13.4137C11.1053 13.3161 10.9125 13.182 10.746 13.0155L10.3022 12.5717C9.81563 12.0851 9.57936 11.3412 9.81144 10.6156C10.4984 8.46782 12.1346 5.91848 15.1833 5.01078C15.1894 5.00895 15.2482 4.98811 15.3834 4.85577C15.4481 4.79244 15.5156 4.71864 15.5989 4.6251L15.6406 4.57811C15.7097 4.50023 15.7921 4.40735 15.8738 4.32137C16.4783 3.68574 17.3816 3.47636 18.1229 3.50203ZM13.3146 13.6013H22.6852V15.862C22.5598 17.1401 21.9806 18.0409 21.1879 18.6365C20.3664 19.2538 19.2682 19.575 18.1194 19.5601C15.8059 19.5302 13.6813 18.1916 13.3146 15.8353V13.6013ZM18.0537 5.50083C17.6597 5.48719 17.4015 5.61719 17.3231 5.69963C17.3135 5.70975 17.3039 5.71995 17.2943 5.73028V9.19012H15.2943V7.08712C13.4028 7.84032 12.2684 9.53705 11.7329 11.1739L12.1602 11.6013H23.8395L24.2884 11.1523C23.8753 9.78273 22.7442 8.37441 20.7055 7.31349V9.19012H18.7055V5.73724C18.6997 5.72907 18.6946 5.72186 18.6901 5.71571C18.6508 5.66156 18.4533 5.51466 18.0537 5.50083ZM11.3145 23.2885C8.14461 25.4051 6.49219 28.5128 6.49219 32.5H4.49219C4.49219 27.3824 6.89015 23.3995 11.3254 20.9429C11.6237 20.7777 11.9541 20.6979 12.2803 20.6979H13.3217C13.8642 20.6979 14.3403 20.9193 14.6918 21.2216C16.5181 22.7925 19.5318 22.8234 21.6362 21.1582C21.9806 20.8856 22.4291 20.6979 22.9283 20.6979H23.9707C24.3371 20.6979 24.709 20.7982 25.0347 21.008C28.8508 23.4658 31.5075 27.6703 31.5075 32.5H29.5075C29.5075 28.7388 27.5937 25.3732 24.6852 23.1988V26.9909C24.91 27.0199 25.1658 27.0765 25.4116 27.1994C25.7582 27.3728 26.0314 27.6505 26.198 28.0253C26.3491 28.3653 26.3907 28.7362 26.3907 29.0888V32.5H24.3907V29.0888C24.3907 29.0418 24.3894 29.0023 24.3873 28.9697C24.3752 28.9684 24.3622 28.9672 24.3483 28.966C24.1853 28.9524 23.9824 28.9517 23.6852 28.9517H12.3145C12.0173 28.9517 11.8144 28.9524 11.6514 28.966C11.6375 28.9672 11.6245 28.9684 11.6124 28.9697C11.6103 29.0023 11.6089 29.0418 11.6089 29.0888V32.5H9.60895V29.0888C9.60895 28.7362 9.6506 28.3653 9.80174 28.0253C9.96832 27.6505 10.2415 27.3728 10.5881 27.1994C10.8339 27.0765 11.0897 27.0199 11.3145 26.9909V23.2885ZM22.6852 22.8736V26.9517H13.3145V22.6979H13.3199C13.3214 22.6982 13.3251 22.6991 13.3311 22.7015C13.3438 22.7066 13.364 22.7176 13.3876 22.7378C15.9445 24.9372 19.9045 24.9339 22.6852 22.8736Z" fill="url(#paint0_linear_499_22230)"/>
<defs>
<linearGradient id="paint0_linear_499_22230" x1="8.42011" y1="-1.23469" x2="38.2861" y2="15.3523" gradientUnits="userSpaceOnUse">
<stop stop-color="#439EF8"/>
<stop offset="1" stop-color="#041632"/>
</linearGradient>
</defs>
</svg>
