<svg width="36" height="36" viewBox="0 0 36 36" fill="none" xmlns="http://www.w3.org/2000/svg">
<path fill-rule="evenodd" clip-rule="evenodd" d="M18.0009 5.62256C17.9714 5.62256 17.9472 5.63241 17.9298 5.64718C15.0715 8.06938 12.0907 8.68824 8.0382 8.76836C8.03292 8.76846 8.02977 8.76943 8.02744 8.77044C8.02454 8.7717 8.02173 8.77362 8.01949 8.77587L8.01758 8.77808V15.4586C8.01758 18.6029 8.45964 21.7738 9.90999 24.4255C11.3372 27.035 13.7876 29.2292 18.0009 30.3764C22.2142 29.2292 24.6646 27.035 26.0918 24.4255C27.5421 21.7738 27.9842 18.6029 27.9842 15.4586V8.77808L27.9823 8.77587C27.98 8.77362 27.9772 8.7717 27.9743 8.77044C27.972 8.76943 27.9689 8.76846 27.9636 8.76836C23.9111 8.68824 20.9303 8.06938 18.072 5.64718C18.0545 5.63241 18.0304 5.62256 18.0009 5.62256ZM16.6368 4.12135C17.4216 3.45629 18.5802 3.45629 19.365 4.12135C21.7217 6.11851 24.164 6.69285 28.0031 6.76875C29.0851 6.79014 29.9842 7.66644 29.9842 8.77789V15.4586C29.9842 18.7532 29.5279 22.311 27.8465 25.3852C26.143 28.4999 23.2308 31.0276 18.5161 32.3089C18.181 32.4 17.8208 32.4 17.4856 32.3089C12.771 31.0276 9.85879 28.4999 8.15529 25.3852C6.47388 22.311 6.01758 18.7532 6.01758 15.4586V8.77789C6.01758 7.66644 6.91671 6.79014 7.99866 6.76875C11.8378 6.69285 14.28 6.11851 16.6368 4.12135ZM23.5232 13.5096C23.9472 13.8635 24.0041 14.4941 23.6502 14.9181L18.4339 21.1686C17.6811 22.0706 16.3166 22.1325 15.4852 21.3023L12.4129 18.2346C12.0221 17.8443 12.0216 17.2112 12.4119 16.8204C12.8021 16.4296 13.4353 16.4291 13.8261 16.8193L16.8984 19.8871L22.1147 13.6367C22.4686 13.2126 23.0992 13.1558 23.5232 13.5096ZM18.738 9.17566C19.1112 8.7686 19.0838 8.13603 18.6768 7.76277C18.2697 7.38952 17.6371 7.41692 17.2639 7.82398C16.3719 8.79675 15.5828 9.35536 14.6927 9.67795C13.7849 10.0069 12.6851 10.1226 11.1138 10.0621C9.99132 10.0189 9.00092 10.9026 9.00092 12.0759V13.9998C9.00092 14.5521 9.44863 14.9998 10.0009 14.9998C10.5532 14.9998 11.0009 14.5521 11.0009 13.9998V12.0759L11.0009 12.0757C11.0015 12.0749 11.0026 12.0735 11.0043 12.0719C11.0079 12.0686 11.0126 12.0655 11.018 12.0634C11.0228 12.0616 11.0287 12.0603 11.0369 12.0606C12.7196 12.1254 14.1159 12.0143 15.3742 11.5583C16.6501 11.0958 17.6968 10.3111 18.738 9.17566ZM26.7165 18.6443C26.8487 18.1081 26.5212 17.5662 25.985 17.434C25.4488 17.3017 24.9069 17.6293 24.7747 18.1655C24.1688 20.6225 23.5633 22.3984 22.6149 23.7671C21.6922 25.0987 20.3931 26.116 18.2545 26.9323C17.7385 27.1292 17.4799 27.7072 17.6768 28.2231C17.8738 28.7391 18.4517 28.9977 18.9677 28.8008C21.4055 27.8703 23.0634 26.6314 24.2588 24.9062C25.4285 23.2181 26.102 21.1365 26.7165 18.6443Z" fill="url(#paint0_linear_4040_5037)"/>
<defs>
<linearGradient id="paint0_linear_4040_5037" x1="9.50222" y1="-1.07208" x2="37.3052" y2="12.7434" gradientUnits="userSpaceOnUse">
<stop stop-color="#439EF8"/>
<stop offset="1" stop-color="#041632"/>
</linearGradient>
</defs>
</svg>
