<svg width="36" height="36" viewBox="0 0 36 36" fill="none" xmlns="http://www.w3.org/2000/svg">
<path fill-rule="evenodd" clip-rule="evenodd" d="M12.4776 6C12.4776 4.89543 13.373 4 14.4776 4H29.9257C31.0302 4 31.9257 4.89543 31.9257 6V28.9258C31.9257 30.0304 31.0302 30.9258 29.9257 30.9258H26.7938C26.4962 31.6568 25.7786 32.1721 24.9407 32.1721H7C5.89543 32.1721 5 31.2767 5 30.1721V9.73887C5 8.6343 5.89543 7.73887 7 7.73887H12.4776V6ZM29.9257 28.9258L26.9407 28.9258V9.73887C26.9407 8.63431 26.0452 7.73887 24.9407 7.73887H14.4776V6H29.9257V28.9258ZM24.9407 9.73887L7 9.73887V30.1721H24.9407V9.73887ZM9.73879 15.9703H22.2017V13.9703H9.73879V15.9703ZM22.2017 20.9555H9.73879V18.9555H22.2017V20.9555ZM9.73879 25.9406H15.9702V23.9406H9.73879V25.9406Z" fill="url(#paint0_linear_4040_5042)"/>
<defs>
<linearGradient id="paint0_linear_4040_5042" x1="8.84652" y1="4" x2="28.2011" y2="48.9003" gradientUnits="userSpaceOnUse">
<stop stop-color="#439EF8"/>
<stop offset="1" stop-color="#041632"/>
</linearGradient>
</defs>
</svg>
