<svg width="36" height="36" viewBox="0 0 36 36" fill="none" xmlns="http://www.w3.org/2000/svg">
<g clip-path="url(#clip0_4040_5080)">
<path fill-rule="evenodd" clip-rule="evenodd" d="M1.99805 7.77523C1.99805 7.34604 2.34533 7 2.77128 7H20.7835C21.2514 7 21.6378 7.38383 21.6378 7.86023V19.3392H1.99805V7.77523ZM2.77128 5C1.23868 5 -0.00195312 6.24355 -0.00195312 7.77523V20.3392V24.6795C-0.00195312 26.2556 1.27051 27.5399 2.8524 27.5399H3.52094C3.96613 29.3197 5.57231 30.6403 7.48974 30.6403C9.40716 30.6403 11.0133 29.3197 11.4585 27.5399H22.6378L22.6438 27.5399H24.8516C25.2968 29.3196 26.903 30.6403 28.8204 30.6403C30.7379 30.6403 32.344 29.3196 32.7892 27.5399H34.0746C35.1399 27.5399 36.004 26.6785 36.004 25.6127V19.7162C36.004 19.6957 36.0037 19.6751 36.0032 19.6544V18.7472C36.0032 18.5133 35.9212 18.2868 35.7715 18.1071L34.7215 16.847L30.1083 11.1322C29.8284 10.7855 29.4439 10.5226 29.0774 10.3473C28.7108 10.1721 28.2648 10.0381 27.8193 10.0381H23.6378V7.86023C23.6378 6.28704 22.3638 5 20.7835 5H2.77128ZM28.7968 24.4397C28.7834 24.4398 28.7702 24.4401 28.7569 24.4405C27.6341 24.4746 26.7298 25.3989 26.7298 26.5399C26.7298 26.5507 26.7296 26.5615 26.7293 26.5723C26.7465 27.72 27.6788 28.6403 28.8204 28.6403C29.9727 28.6403 30.9118 27.7027 30.9118 26.5399C30.9118 25.3772 29.9727 24.4396 28.8204 24.4396C28.8125 24.4396 28.8046 24.4396 28.7968 24.4397ZM28.7724 22.4398C28.7887 22.4396 28.8049 22.4396 28.8212 22.4396C30.7386 22.4396 32.3448 23.7602 32.79 25.5399H34.004V20.7058H26.7929C25.6522 20.7058 24.729 19.7826 24.729 18.6389V15.2053C24.729 14.0707 25.6426 13.1385 26.7896 13.1385H29.1575L28.552 12.3884C28.5098 12.3361 28.395 12.2379 28.2148 12.1518C28.0346 12.0656 27.8863 12.0381 27.8193 12.0381H23.6384V25.5399H24.8516C25.283 23.8156 26.8042 22.5222 28.6424 22.4434C28.6855 22.4415 28.7289 22.4403 28.7724 22.4398ZM3.52094 25.5399C3.94529 23.8436 5.42442 22.5643 7.22248 22.4482C7.31082 22.4425 7.39993 22.4396 7.48972 22.4396H7.48998C9.4074 22.4396 11.0136 23.7602 11.4588 25.5399H21.6378V21.3392H1.99805V24.6795C1.99805 25.1584 2.38248 25.5399 2.8524 25.5399H3.52094ZM7.48974 28.6403C6.34353 28.6403 5.4083 27.7126 5.39842 26.5584L5.39858 26.5399C5.39858 25.4277 6.25785 24.5215 7.34107 24.4448C7.38142 24.442 7.42208 24.4403 7.46301 24.4397L7.48974 24.4396C8.64205 24.4396 9.58113 25.3772 9.58113 26.5399C9.58113 27.7027 8.64205 28.6403 7.48974 28.6403ZM33.6429 18.6949L33.1751 18.1154L30.6944 15.1385H26.7896C26.7609 15.1385 26.729 15.1615 26.729 15.2053V18.6389C26.729 18.6797 26.7584 18.7058 26.7929 18.7058H33.6514L33.6429 18.6949Z" fill="url(#paint0_linear_4040_5080)"/>
</g>
<defs>
<linearGradient id="paint0_linear_4040_5080" x1="4.04871" y1="0.384708" x2="36.4701" y2="46.8613" gradientUnits="userSpaceOnUse">
<stop stop-color="#439EF8"/>
<stop offset="1" stop-color="#041632"/>
</linearGradient>
<clipPath id="clip0_4040_5080">
<rect width="36" height="36" fill="white"/>
</clipPath>
</defs>
</svg>
