<svg width="36" height="36" viewBox="0 0 36 36" fill="none" xmlns="http://www.w3.org/2000/svg">
<g clip-path="url(#clip0_4092_3787)">
<path fill-rule="evenodd" clip-rule="evenodd" d="M1.99707 7.77523C1.99707 7.34604 2.34435 7 2.77031 7H20.7825C21.2505 7 21.6369 7.38383 21.6369 7.86023V19.3392H1.99707V7.77523ZM2.77031 5C1.2377 5 -0.00292969 6.24355 -0.00292969 7.77523V20.3392V24.6795C-0.00292969 26.2556 1.26954 27.5399 2.85142 27.5399H3.51996C3.96515 29.3197 5.57133 30.6403 7.48876 30.6403C9.40618 30.6403 11.0124 29.3197 11.4576 27.5399H22.6369L22.6428 27.5399H24.8507C25.2958 29.3196 26.902 30.6403 28.8195 30.6403C30.7369 30.6403 32.3431 29.3196 32.7883 27.5399H34.0736C35.1389 27.5399 36.003 26.6785 36.003 25.6127V19.7162C36.003 19.6957 36.0027 19.6751 36.0022 19.6544V18.7472C36.0022 18.5133 35.9202 18.2868 35.7705 18.1071L34.7205 16.847L30.1073 11.1322C29.8274 10.7855 29.443 10.5226 29.0764 10.3473C28.7098 10.1721 28.2638 10.0381 27.8184 10.0381H23.6369V7.86023C23.6369 6.28704 22.3628 5 20.7825 5H2.77031ZM28.7958 24.4397C28.7825 24.4398 28.7692 24.4401 28.7559 24.4405C27.6332 24.4746 26.7288 25.3989 26.7288 26.5399C26.7288 26.5507 26.7286 26.5615 26.7283 26.5723C26.7455 27.72 27.6778 28.6403 28.8195 28.6403C29.9718 28.6403 30.9108 27.7027 30.9108 26.5399C30.9108 25.3772 29.9718 24.4396 28.8195 24.4396C28.8116 24.4396 28.8037 24.4396 28.7958 24.4397ZM28.7715 22.4398C28.7877 22.4396 28.8039 22.4396 28.8202 22.4396C30.7376 22.4396 32.3438 23.7602 32.789 25.5399H34.003V20.7058H26.7919C25.6513 20.7058 24.7281 19.7826 24.7281 18.6389V15.2053C24.7281 14.0707 25.6416 13.1385 26.7886 13.1385H29.1565L28.551 12.3884C28.5088 12.3361 28.394 12.2379 28.2139 12.1518C28.0336 12.0656 27.8853 12.0381 27.8184 12.0381H23.6374V25.5399H24.8507C25.282 23.8156 26.8032 22.5222 28.6414 22.4434C28.6846 22.4415 28.7279 22.4403 28.7715 22.4398ZM3.51996 25.5399C3.94431 23.8436 5.42344 22.5643 7.22151 22.4482C7.30984 22.4425 7.39895 22.4396 7.48874 22.4396H7.48901C9.40643 22.4396 11.0126 23.7602 11.4578 25.5399H21.6369V21.3392H1.99707V24.6795C1.99707 25.1584 2.38151 25.5399 2.85142 25.5399H3.51996ZM7.48876 28.6403C6.34255 28.6403 5.40733 27.7126 5.39744 26.5584L5.39761 26.5399C5.39761 25.4277 6.25687 24.5215 7.3401 24.4448C7.38044 24.442 7.4211 24.4403 7.46204 24.4397L7.48876 24.4396C8.64108 24.4396 9.58016 25.3772 9.58016 26.5399C9.58016 27.7027 8.64108 28.6403 7.48876 28.6403ZM33.6419 18.6949L33.1741 18.1154L30.6935 15.1385H26.7886C26.7599 15.1385 26.7281 15.1615 26.7281 15.2053V18.6389C26.7281 18.6797 26.7575 18.7058 26.7919 18.7058H33.6505L33.6419 18.6949Z" fill="url(#paint0_linear_4092_3787)"/>
</g>
<defs>
<linearGradient id="paint0_linear_4092_3787" x1="4.04774" y1="0.384708" x2="36.4692" y2="46.8613" gradientUnits="userSpaceOnUse">
<stop stop-color="#439EF8"/>
<stop offset="1" stop-color="#041632"/>
</linearGradient>
<clipPath id="clip0_4092_3787">
<rect width="36" height="36" fill="white"/>
</clipPath>
</defs>
</svg>
