<svg width="36" height="36" viewBox="0 0 36 36" fill="none" xmlns="http://www.w3.org/2000/svg">
<mask id="mask0_4092_3750" style="mask-type:alpha" maskUnits="userSpaceOnUse" x="3" y="3" width="31" height="30">
<path d="M24.5333 4H7.73333C6.74319 4 5.79361 4.39333 5.09347 5.09347C4.39333 5.79361 4 6.74319 4 7.73333V30.1333C4 30.6284 4.19666 31.1033 4.54673 31.4533C4.8968 31.8034 5.37159 32 5.86667 32H7.64622" stroke="black" stroke-width="2" stroke-linecap="round" stroke-linejoin="round"/>
<path d="M7.7334 9.91113H16.7556" stroke="black" stroke-width="2" stroke-linecap="round" stroke-linejoin="round"/>
<path d="M7.7334 14.8889H13.7814" stroke="black" stroke-width="2" stroke-linecap="round" stroke-linejoin="round"/>
<path d="M21.7334 15.2V6.8C21.7334 6.05739 22.0285 5.34521 22.5535 4.8201C23.0786 4.295 23.7908 4 24.5334 4C25.2761 4 25.9883 4.295 26.5133 4.8201C27.0385 5.34521 27.3334 6.05739 27.3334 6.8V9.91111H21.7334" stroke="black" stroke-width="2" stroke-linecap="round" stroke-linejoin="round"/>
<path d="M30.1337 27.4702L24.1729 28.6649" stroke="black" stroke-width="2" stroke-linecap="round" stroke-linejoin="round"/>
<path d="M24.77 21.9077L21.9575 23.0899C21.7375 23.1851 21.5003 23.2342 21.2606 23.2342C21.0208 23.2342 20.7836 23.1851 20.5638 23.0899C20.2391 22.9427 19.9626 22.7067 19.7662 22.4093C19.5697 22.1118 19.4614 21.7649 19.4536 21.4085C19.4457 21.0521 19.5388 20.7008 19.722 20.3949C19.9052 20.0892 20.1711 19.8414 20.4891 19.6801L23.3015 18.2739C23.6482 18.0962 24.0319 18.0025 24.4215 18.0001C24.7156 17.9971 25.0073 18.0521 25.2802 18.1619L31.0295 20.489" stroke="black" stroke-width="2" stroke-linecap="round" stroke-linejoin="round"/>
<path d="M13.2715 28.7147H15.2502L19.0457 31.6018C19.1346 31.7026 19.2425 31.7848 19.3633 31.8438C19.484 31.9026 19.6152 31.9372 19.7494 31.9453C19.8835 31.9534 20.0179 31.9349 20.1448 31.8909C20.2719 31.8469 20.3889 31.7783 20.4893 31.689L25.7906 27.3085C26.0022 27.1377 26.1378 26.8903 26.1681 26.62C26.1984 26.3497 26.1209 26.0784 25.9524 25.865L22.9782 22.6418" stroke="black" stroke-width="2" stroke-linecap="round" stroke-linejoin="round"/>
<path d="M20.1645 19.8791L19.8534 19.6178C19.4624 19.3608 19.0018 19.2304 18.5343 19.2444C18.2497 19.2444 17.9673 19.295 17.7005 19.3938L13.2578 21.2355" stroke="black" stroke-width="2" stroke-linecap="round" stroke-linejoin="round"/>
<path d="M11.4668 29.6479H11.8401C12.0265 29.658 12.213 29.6313 12.389 29.569C12.565 29.5069 12.727 29.4106 12.8657 29.2858C13.0044 29.161 13.1171 29.01 13.1974 28.8415C13.2777 28.673 13.3239 28.4904 13.3335 28.3039V21.6462C13.311 21.272 13.1413 20.9218 12.8615 20.6723C12.5817 20.4227 12.2145 20.2942 11.8401 20.3146H11.4668" stroke="black" stroke-width="2" stroke-linecap="round" stroke-linejoin="round"/>
<path d="M31.9998 29.6479H31.6886C31.5022 29.658 31.3157 29.6313 31.1397 29.569C30.9638 29.5069 30.8017 29.4106 30.6631 29.2858C30.5243 29.161 30.4116 29.01 30.3313 28.8415C30.2511 28.673 30.2048 28.4904 30.1953 28.3039V21.6462C30.2177 21.272 30.3875 20.9218 30.6672 20.6723C30.9471 20.4227 31.3143 20.2942 31.6886 20.3146H32.062" stroke="black" stroke-width="2" stroke-linecap="round" stroke-linejoin="round"/>
</mask>
<g mask="url(#mask0_4092_3750)">
<rect width="36" height="36" fill="url(#paint0_linear_4092_3750)"/>
</g>
<defs>
<linearGradient id="paint0_linear_4092_3750" x1="5.14286" y1="-2.98131e-07" x2="29.1059" y2="58.165" gradientUnits="userSpaceOnUse">
<stop stop-color="#439EF8"/>
<stop offset="1" stop-color="#041632"/>
</linearGradient>
</defs>
</svg>
