<svg width="19" height="22" viewBox="0 0 19 22" fill="none" xmlns="http://www.w3.org/2000/svg">
<path d="M16.2241 5.78841C16.2241 6.08961 15.9799 6.33381 15.6787 6.33381H3.45974C3.15854 6.33381 2.91434 6.08961 2.91434 5.78841V3.34401C2.91434 3.04281 3.15854 2.79861 3.45974 2.79861H15.6787C15.9799 2.79861 16.2241 3.04281 16.2241 3.34401V5.78841ZM16.2241 10.424C16.2241 10.7258 15.9799 10.9694 15.6787 10.9694H13.4419C13.1407 10.9694 12.8965 10.7258 12.8965 10.424V9.16281C12.8965 8.86101 13.1407 8.61681 13.4419 8.61681H15.6787C15.9799 8.61681 16.2241 8.86101 16.2241 9.16281V10.424ZM16.2241 18.509C16.2241 18.8102 15.9799 19.0544 15.6787 19.0544H13.4419C13.1407 19.0544 12.8965 18.8102 12.8965 18.509V13.205C12.8965 12.9038 13.1407 12.6596 13.4419 12.6596H15.6787C15.9799 12.6596 16.2241 12.9038 16.2241 13.205V18.509ZM11.1637 10.424C11.1637 10.7258 10.9195 10.9694 10.6183 10.9694H8.38154C8.08034 10.9694 7.83614 10.7258 7.83614 10.424V9.16281C7.83614 8.86101 8.08034 8.61681 8.38154 8.61681H10.6183C10.9195 8.61681 11.1637 8.86101 11.1637 9.16281V10.424ZM11.1637 14.4668C11.1637 14.768 10.9195 15.0122 10.6183 15.0122H8.38154C8.08034 15.0122 7.83614 14.768 7.83614 14.4668V13.205C7.83614 12.9038 8.08034 12.6596 8.38154 12.6596H10.6183C10.9195 12.6596 11.1637 12.9038 11.1637 13.205V14.4668ZM11.1637 18.509C11.1637 18.8102 10.9195 19.0544 10.6183 19.0544H8.38154C8.08034 19.0544 7.83614 18.8102 7.83614 18.509V17.2472C7.83614 16.946 8.08034 16.7018 8.38154 16.7018H10.6183C10.9195 16.7018 11.1637 16.946 11.1637 17.2472V18.509ZM6.24194 10.424C6.24194 10.7258 5.99774 10.9694 5.69654 10.9694H3.45974C3.15854 10.9694 2.91434 10.7258 2.91434 10.424V9.16281C2.91434 8.86101 3.15854 8.61681 3.45974 8.61681H5.69654C5.99774 8.61681 6.24194 8.86101 6.24194 9.16281V10.424ZM6.24194 14.4668C6.24194 14.768 5.99774 15.0122 5.69654 15.0122H3.45974C3.15854 15.0122 2.91434 14.768 2.91434 14.4668V13.205C2.91434 12.9038 3.15854 12.6596 3.45974 12.6596H5.69654C5.99774 12.6596 6.24194 12.9038 6.24194 13.205V14.4668ZM6.24194 18.509C6.24194 18.8102 5.99774 19.0544 5.69654 19.0544H3.45974C3.15854 19.0544 2.91434 18.8102 2.91434 18.509V17.2472C2.91434 16.946 3.15854 16.7018 3.45974 16.7018H5.69654C5.99774 16.7018 6.24194 16.946 6.24194 17.2472V18.509ZM16.8787 0.762207H2.12114C1.37234 0.762207 0.765137 1.36881 0.765137 2.11761V19.8824C0.765137 20.6312 1.37234 21.2378 2.12114 21.2378H16.8787C17.6275 21.2378 18.2347 20.6312 18.2347 19.8824V2.11761C18.2347 1.36881 17.6275 0.762207 16.8787 0.762207Z" fill="#27272C"/>
</svg>
