<svg width="48" height="48" viewBox="0 0 48 48" fill="none" xmlns="http://www.w3.org/2000/svg">
<path d="M35.2637 38.1083L36.3241 39.4037C36.5631 39.7797 36.9381 40.0488 37.3708 40.1548C37.8035 40.2607 38.2604 40.1954 38.6461 39.9725C39.0318 39.7496 39.3164 39.3862 39.4406 38.9584C39.5647 38.5305 39.5187 38.0712 39.3122 37.6765L38.2501 36.345" stroke="#27272C" stroke-width="1.5"/>
<path d="M9.9058 36.1497L8.68797 37.6764C8.48148 38.0711 8.43549 38.5304 8.55961 38.9583C8.68373 39.3861 8.96837 39.7495 9.35406 39.9724C9.73976 40.1953 10.1967 40.2606 10.6294 40.1547C11.0621 40.0487 11.4371 39.7796 11.6761 39.4036L12.773 38.0636" stroke="#27272C" stroke-width="1.5"/>
<path d="M41.2722 23.4268V29.0403C41.2693 31.5589 40.2674 33.9734 38.4865 35.7544C36.7056 37.5353 34.291 38.5371 31.7724 38.5401H16.2273C13.7087 38.5371 11.2942 37.5353 9.51324 35.7544C7.73233 33.9734 6.73051 31.5589 6.72754 29.0403V23.4268" stroke="#27272C" stroke-width="1.5"/>
<path d="M40.8411 19.5405H7.16002C5.96761 19.5405 5.00098 20.5072 5.00098 21.6996C5.00098 22.892 5.96761 23.8586 7.16002 23.8586H40.8411C42.0335 23.8586 43.0001 22.892 43.0001 21.6996C43.0001 20.5072 42.0335 19.5405 40.8411 19.5405Z" stroke="#27272C" stroke-width="1.5"/>
<path d="M10.5449 18.8343V8.88858C10.5449 7.25295 11.8709 5.927 13.5065 5.927V5.927C14.2134 5.927 14.8914 6.20782 15.3912 6.70768L17.7727 9.08916" stroke="#27272C" stroke-width="1.5"/>
<path d="M18.5219 15.3456H18.5218C18.4943 15.3456 18.4673 15.3382 18.4437 15.3242L18.4437 15.3242L18.4361 15.3198C17.9347 15.0315 17.5064 14.6315 17.1845 14.151C16.8625 13.6705 16.6555 13.1223 16.5795 12.5489C16.5035 11.9755 16.5606 11.3923 16.7463 10.8445C16.932 10.2967 17.2413 9.79905 17.6503 9.39006C18.0593 8.98106 18.557 8.67173 19.1048 8.48604C19.6526 8.30035 20.2358 8.24329 20.8092 8.31927C21.3826 8.39526 21.9308 8.60225 22.4113 8.92421C22.8918 9.24617 23.2917 9.67445 23.5801 10.1759L23.58 10.1759L23.5845 10.1835C23.6019 10.2128 23.6089 10.2471 23.6047 10.2809L24.3422 10.3743L23.6047 10.2809C23.6004 10.3147 23.585 10.3461 23.5609 10.3701L23.5608 10.3703L18.6305 15.3005L18.6304 15.3006C18.6017 15.3294 18.5626 15.3456 18.5219 15.3456Z" stroke="#27272C" stroke-width="1.5"/>
</svg>
