<svg width="48" height="48" viewBox="0 0 48 48" fill="none" xmlns="http://www.w3.org/2000/svg">
<path d="M6.05273 36.8289V39.5746C6.05273 39.9821 6.3835 40.3129 6.79106 40.3129H12.4082C12.8158 40.3129 13.1465 39.9821 13.1465 39.5746V36.8289" stroke="#27272C" stroke-width="1.5"/>
<path d="M34.853 36.8289V39.5746C34.853 39.9821 35.1838 40.3129 35.5913 40.3129H41.2085C41.6161 40.3129 41.9468 39.9821 41.9468 39.5746V36.8289" stroke="#27272C" stroke-width="1.5"/>
<path d="M4.55836 28.5588H43.4413C43.8253 28.5588 44.1442 28.8542 44.1797 29.2322L44.9948 35.8653C45.042 36.2669 44.7585 36.639 44.3509 36.6863C44.3214 36.6922 44.2919 36.6922 44.2623 36.6922H3.73735C3.32979 36.6922 2.99902 36.3614 2.99902 35.9539C2.99902 35.9125 3.00493 35.8771 3.01084 35.8416L3.82594 29.2086C3.8732 28.8364 4.19215 28.5588 4.55836 28.5588Z" stroke="#27272C" stroke-width="1.5"/>
<path d="M7.55273 23.2251V10.4256C7.55273 10.018 7.8835 9.68726 8.29106 9.68726H39.7081C40.1216 9.68726 40.4464 10.018 40.4464 10.4256V23.2251C40.4464 23.6327 40.1216 23.9634 39.7081 23.9634H8.29106C7.8835 23.9634 7.55273 23.6327 7.55273 23.2251Z" stroke="#27272C" stroke-width="1.5"/>
<path d="M36.3711 23.9635H25.4085V23.9575C25.3671 23.9575 25.3317 23.9575 25.2903 23.9516C24.8887 23.8867 24.617 23.5086 24.682 23.107L25.4912 18.1809C25.5266 17.8029 25.8456 17.5076 26.2295 17.5076H35.556V17.5135C35.9104 17.5076 36.2234 17.7675 36.2825 18.1278L37.0917 23.0479C37.1035 23.107 37.1094 23.1661 37.1094 23.2251C37.1094 23.6327 36.7786 23.9635 36.3711 23.9635Z" stroke="#27272C" stroke-width="1.5"/>
<path d="M22.5908 23.9635H11.6282V23.9575C11.5869 23.9575 11.5455 23.9575 11.5101 23.9516C11.1084 23.8867 10.8367 23.5086 10.9017 23.107L11.7109 18.1809C11.7463 17.8029 12.0594 17.5076 12.4492 17.5076H21.7698V17.5135C22.1242 17.5076 22.4372 17.7675 22.4963 18.1278L23.3114 23.0479C23.3232 23.107 23.3291 23.1661 23.3291 23.2251C23.3291 23.6327 22.9984 23.9635 22.5908 23.9635Z" stroke="#27272C" stroke-width="1.5"/>
<path d="M5.49756 28.4221V23.2251C5.49756 22.8176 5.82833 22.4868 6.23588 22.4868H7.3741M42.5082 28.4221V23.2251C42.5082 22.8176 42.1774 22.4868 41.7698 22.4868H40.6254" stroke="#27272C" stroke-width="1.5"/>
</svg>
