<svg width="21" height="20" viewBox="0 0 21 20" fill="none" xmlns="http://www.w3.org/2000/svg">
<path d="M19.667 4.80824L19.6613 4.78517C19.1945 2.89799 17.09 0.873024 15.1573 0.451748L15.1355 0.447244C12.0095 -0.149081 8.83983 -0.149081 5.71448 0.447244L5.69203 0.451748C3.76001 0.873024 1.65541 2.89813 1.188 4.78517L1.18281 4.80824C0.60573 7.44365 0.60573 10.1164 1.18281 12.7518L1.188 12.7749C1.63555 14.5815 3.58333 16.5135 5.44389 17.0448V19.1514C5.44389 19.9139 6.37305 20.2883 6.9014 19.7381L9.03576 17.5195C9.49874 17.5454 9.96192 17.5598 10.425 17.5598C11.9985 17.5598 13.5728 17.411 15.1354 17.1129L15.1572 17.1084C17.0899 16.6871 19.1944 14.662 19.6612 12.775L19.667 12.7519C20.244 10.1164 20.244 7.44379 19.667 4.80824ZM17.9779 12.3697C17.6662 13.6009 16.0683 15.1315 14.7987 15.4143C13.1366 15.7304 11.4613 15.8655 9.78762 15.8192C9.75431 15.8182 9.72231 15.8312 9.69917 15.8551C9.46161 16.0988 8.1408 17.4549 8.1408 17.4549L6.48326 19.1561C6.36206 19.2825 6.14914 19.1964 6.14914 19.022V15.5323C6.14914 15.4746 6.10798 15.4257 6.05134 15.4145C6.051 15.4143 6.05073 15.4143 6.05039 15.4143C4.78076 15.1315 3.18341 13.6009 2.87119 12.3696C2.35178 9.98749 2.35178 7.57257 2.87119 5.19041C3.18341 3.9592 4.78076 2.4286 6.05039 2.14579C8.95326 1.59369 11.8965 1.59369 14.7988 2.14579C16.069 2.4286 17.6663 3.9592 17.978 5.19041C18.4979 7.57264 18.4979 9.98755 17.9779 12.3697Z" fill="white"/>
<path d="M13.1867 13.9804C12.9916 13.9211 12.8056 13.8814 12.6327 13.8098C10.8426 13.0671 9.19515 12.1089 7.89024 10.6402C7.14814 9.80501 6.56731 8.86207 6.07635 7.86419C5.8435 7.39098 5.6473 6.89928 5.44727 6.41064C5.26492 5.96514 5.53353 5.5049 5.81634 5.16913C6.08175 4.85404 6.42331 4.613 6.7932 4.43522C7.08188 4.29655 7.36659 4.37653 7.57747 4.62119C8.03321 5.15023 8.45196 5.70629 8.79087 6.31954C8.99936 6.69673 8.94217 7.15779 8.56429 7.41446C8.47244 7.47684 8.38877 7.55013 8.30326 7.62056C8.22819 7.68232 8.15762 7.7447 8.10617 7.8283C8.01219 7.98123 8.00769 8.16174 8.06815 8.32806C8.53406 9.6084 9.31936 10.6041 10.6082 11.1404C10.8144 11.2262 11.0215 11.3261 11.2591 11.2984C11.657 11.2519 11.7858 10.8154 12.0647 10.5874C12.3372 10.3646 12.6855 10.3617 12.979 10.5475C13.2727 10.7334 13.5572 10.9328 13.8402 11.1344C14.1179 11.3323 14.3944 11.5258 14.6505 11.7515C14.8969 11.9684 14.9817 12.253 14.843 12.5474C14.5891 13.0866 14.2196 13.535 13.6866 13.8214C13.5361 13.902 13.3564 13.9282 13.1867 13.9804C13.3564 13.9282 12.9916 13.9211 13.1867 13.9804Z" fill="white"/>
<path d="M10.4298 3.8188C12.7712 3.88445 14.6944 5.43832 15.1065 7.75319C15.1768 8.14765 15.2017 8.55084 15.233 8.95123C15.2462 9.11959 15.1508 9.27956 14.9691 9.28181C14.7814 9.28406 14.697 9.12696 14.6847 8.95874C14.6606 8.62557 14.6439 8.29082 14.598 7.96052C14.3556 6.21624 12.9648 4.7732 11.2287 4.46358C10.9673 4.41696 10.7001 4.40475 10.4354 4.37697C10.2681 4.35943 10.049 4.34933 10.012 4.14132C9.98093 3.96696 10.1281 3.82815 10.2941 3.81921C10.3391 3.81655 10.3845 3.81866 10.4298 3.8188C12.7713 3.88445 10.3845 3.81866 10.4298 3.8188Z" fill="white"/>
<path d="M13.9879 8.43176C13.984 8.46103 13.982 8.52976 13.9648 8.59445C13.9027 8.82949 13.5462 8.8589 13.4642 8.62175C13.4399 8.55139 13.4363 8.47127 13.4361 8.39552C13.4353 7.89965 13.3275 7.40419 13.0774 6.97268C12.8203 6.52915 12.4275 6.15647 11.9669 5.93078C11.6884 5.79443 11.3872 5.7096 11.0819 5.65917C10.9485 5.63705 10.8136 5.62375 10.6795 5.60505C10.517 5.58246 10.4302 5.47893 10.438 5.31883C10.4451 5.16883 10.5548 5.06079 10.7183 5.07014C11.2556 5.10058 11.7747 5.21687 12.2525 5.46979C13.2239 5.98429 13.7788 6.79626 13.9409 7.88061C13.9482 7.92981 13.9599 7.97841 13.9637 8.02768C13.9728 8.14929 13.9786 8.27111 13.9879 8.43176C13.984 8.4609 13.9786 8.27111 13.9879 8.43176Z" fill="white"/>
<path d="M12.5318 8.37489C12.3359 8.37844 12.2311 8.26993 12.2108 8.09045C12.1968 7.96529 12.1856 7.83835 12.1557 7.71647C12.0969 7.47645 11.9694 7.25411 11.7675 7.10704C11.6722 7.03763 11.5642 6.98706 11.4511 6.9543C11.3074 6.91274 11.1581 6.92421 11.0149 6.88913C10.8592 6.85098 10.7731 6.72487 10.7976 6.57889C10.8198 6.44595 10.9491 6.34222 11.0944 6.35279C12.0022 6.41831 12.651 6.88763 12.7436 7.95635C12.7502 8.03176 12.7579 8.1114 12.7411 8.18367C12.7123 8.30699 12.6209 8.36889 12.5318 8.37489C12.6209 8.36889 12.3358 8.37837 12.5318 8.37489Z" fill="white"/>
</svg>
