<svg width="19" height="18" viewBox="0 0 19 18" fill="none" xmlns="http://www.w3.org/2000/svg">
<path fill-rule="evenodd" clip-rule="evenodd" d="M9.74691 -0.000488281H9.75141C14.7139 -0.000488281 18.7493 4.0372 18.7493 8.99965C18.7493 13.9621 14.7139 17.9998 9.75141 17.9998C7.92101 17.9998 6.22336 17.4553 4.80021 16.5125L1.34078 17.6184L2.46242 14.2749C1.38353 12.7932 0.749023 10.9684 0.749023 8.99965C0.749023 4.03607 4.78446 -0.000488281 9.74691 -0.000488281ZM13.223 13.9787C13.9104 13.8302 14.7722 13.3217 14.9893 12.7086C15.2064 12.0943 15.2064 11.5712 15.1434 11.4598C15.0925 11.3715 14.9722 11.3136 14.7927 11.2271C14.7459 11.2046 14.6951 11.1801 14.6405 11.1527C14.3761 11.0211 13.0903 10.3854 12.8472 10.3011C12.6087 10.2111 12.3815 10.2426 12.2015 10.4968C12.1673 10.5448 12.1331 10.5928 12.0991 10.6406C11.882 10.946 11.6725 11.2406 11.4984 11.4283C11.3397 11.5971 11.081 11.6185 10.8638 11.5285C10.8402 11.5186 10.813 11.5076 10.7826 11.4954C10.4389 11.3565 9.67633 11.0485 8.75331 10.2268C7.9748 9.53381 7.44604 8.67092 7.29304 8.41216C7.14282 8.15259 7.27239 8.00038 7.39215 7.85971C7.39437 7.8571 7.39658 7.8545 7.39879 7.85191C7.476 7.75637 7.55093 7.67682 7.62623 7.59688C7.6804 7.53937 7.73476 7.48166 7.7903 7.41765C7.79854 7.40814 7.80657 7.39892 7.81438 7.38993C7.93231 7.25433 8.00254 7.17359 8.08168 7.00477C8.17168 6.83039 8.10755 6.65039 8.04343 6.51763C7.9993 6.42466 7.72674 5.76335 7.49277 5.19566C7.39265 4.95276 7.2996 4.72699 7.23454 4.57023C7.06016 4.15285 6.92741 4.1371 6.66303 4.12585C6.65493 4.12544 6.64674 4.12503 6.63847 4.12461C6.55491 4.12038 6.46287 4.11572 6.36152 4.11572C6.01727 4.11572 5.65839 4.21697 5.44126 4.4386C5.43367 4.44635 5.42576 4.4544 5.41756 4.46274C5.13978 4.74525 4.521 5.37456 4.521 6.62901C4.521 7.88589 5.41281 9.10229 5.57781 9.32735C5.58236 9.33355 5.58635 9.339 5.58976 9.34368C5.59969 9.35672 5.6184 9.38382 5.64564 9.42326C5.98256 9.91117 7.6236 12.2877 10.0707 13.3015C12.1385 14.1588 12.7527 14.0789 13.223 13.9787Z" fill="white"/>
</svg>
