<svg width="24" height="17" viewBox="0 0 24 17" fill="none" xmlns="http://www.w3.org/2000/svg">
<path fill-rule="evenodd" clip-rule="evenodd" d="M9.522 11.6349L9.52125 4.84387L16.0058 8.25113L9.522 11.6349ZM23.76 3.66708C23.76 3.66708 23.5252 2.0016 22.806 1.26819C21.8932 0.305155 20.8702 0.300614 20.4015 0.24472C17.043 -3.54648e-06 12.0052 0 12.0052 0H11.9948C11.9948 0 6.957 -3.54648e-06 3.5985 0.24472C3.129 0.300614 2.10675 0.305155 1.19325 1.26819C0.474003 2.0016 0.239998 3.66708 0.239998 3.66708C0.239998 3.66708 0 5.62336 0 7.57889V9.41281C0 11.3691 0.239998 13.3246 0.239998 13.3246C0.239998 13.3246 0.474003 14.9901 1.19325 15.7235C2.10675 16.6865 3.306 16.6563 3.84 16.7568C5.76 16.9426 12 17 12 17C12 17 17.043 16.9924 20.4015 16.7477C20.8702 16.6911 21.8932 16.6865 22.806 15.7235C23.5252 14.9901 23.76 13.3246 23.76 13.3246C23.76 13.3246 24 11.3691 24 9.41281V7.57889C24 5.62336 23.76 3.66708 23.76 3.66708Z" fill="white"/>
</svg>
