<svg width="36" height="36" viewBox="0 0 36 36" fill="none" xmlns="http://www.w3.org/2000/svg">
<path fill-rule="evenodd" clip-rule="evenodd" d="M5.07397 0.565077C5.46239 0.417708 5.90146 0.525832 6.17703 0.83671L13.0342 8.57243L18.143 14.3358V12V10C18.143 9.42994 18.3374 8.87715 18.7502 8.46437C19.163 8.05159 19.7157 7.85719 20.2859 7.85719H24.8573C25.4192 7.85719 26.1104 8.05397 26.5755 8.71843L31.1239 14.4039C31.1679 14.4589 31.2059 14.5184 31.2374 14.5814L31.2572 14.6206C31.3558 14.8144 31.5716 15.2389 31.5716 15.7143V22.5715C31.5716 22.7938 31.542 23.0134 31.4815 23.2232C33.5196 23.8546 35 25.7544 35 28C35 30.7615 32.7614 33 30 33H6C3.23858 33 1 30.7615 1 28C1 25.7543 2.48053 23.8544 4.51877 23.2231C4.45826 23.0134 4.42871 22.7937 4.42871 22.5715C4.42871 21.0356 4.73161 19.3522 5.85251 18.0482C6.7777 16.9719 8.14898 16.2799 10.0262 16.0532L6.42871 6.82069V12C6.42871 12.5523 5.981 13 5.42871 13C4.87643 13 4.42871 12.5523 4.42871 12V1.50004C4.42871 1.08461 4.68556 0.712446 5.07397 0.565077ZM8.39197 6.35051L11.2445 9.56851L10.8998 12.7865L8.39197 6.35051ZM12.5701 15.9715L13.0391 11.593L16.9202 15.9715H12.5701ZM20.143 15.9715H23V13H20.143V15.3715V15.9715ZM20.143 11H23.8C24.4627 11 25 11.5373 25 12.2V16.7715C25 17.4342 24.4627 17.9715 23.8 17.9715H19.143H11.4573C9.20006 17.9715 8.0161 18.5993 7.36919 19.3519C6.69724 20.1336 6.42871 21.2502 6.42871 22.5715C6.42871 22.6316 6.43862 22.6659 6.4442 22.6804C6.44689 22.6873 6.44906 22.6912 6.45018 22.6929C6.45188 22.694 6.4557 22.6962 6.46269 22.6988C6.47719 22.7044 6.51142 22.7143 6.57157 22.7143H29.4287C29.4889 22.7143 29.5231 22.7044 29.5376 22.6988C29.5446 22.6962 29.5484 22.694 29.5501 22.6929L29.5519 22.6898C29.553 22.6877 29.5544 22.6846 29.5561 22.6804C29.5617 22.6659 29.5716 22.6316 29.5716 22.5715V15.7448L29.5685 15.7357L29.5638 15.7226C29.5548 15.6986 29.5415 15.6672 29.5215 15.6245C29.5131 15.6067 29.5044 15.5887 29.4951 15.5695L24.9907 9.93903C24.9726 9.91645 24.9556 9.89309 24.9395 9.86903L24.937 9.86546C24.9263 9.86242 24.9013 9.85719 24.8573 9.85719H20.2859C20.2257 9.85719 20.1915 9.8671 20.177 9.87268L20.1724 9.87456L20.1683 9.87645L20.1645 9.87866C20.1633 9.88036 20.1612 9.88418 20.1585 9.89117C20.1529 9.90567 20.143 9.9399 20.143 10V11ZM6 25C4.34315 25 3 26.3432 3 28C3 29.6569 4.34315 31 6 31H30C31.6569 31 33 29.6569 33 28C33 26.3432 31.6569 25 30 25H6ZM8 29C8.55228 29 9 28.5523 9 28C9 27.4478 8.55228 27 8 27C7.44772 27 7 27.4478 7 28C7 28.5523 7.44772 29 8 29ZM19 28C19 28.5523 18.5523 29 18 29C17.4477 29 17 28.5523 17 28C17 27.4478 17.4477 27 18 27C18.5523 27 19 27.4478 19 28ZM28 29C28.5523 29 29 28.5523 29 28C29 27.4478 28.5523 27 28 27C27.4477 27 27 27.4478 27 28C27 28.5523 27.4477 29 28 29Z" fill="url(#paint0_linear_4092_3775)"/>
<defs>
<linearGradient id="paint0_linear_4092_3775" x1="5.85714" y1="0.5" x2="26.7983" y2="53.6759" gradientUnits="userSpaceOnUse">
<stop stop-color="#439EF8"/>
<stop offset="1" stop-color="#041632"/>
</linearGradient>
</defs>
</svg>
