<svg width="36" height="36" viewBox="0 0 36 36" fill="none" xmlns="http://www.w3.org/2000/svg">
<path fill-rule="evenodd" clip-rule="evenodd" d="M31.8027 20.3033C30.3961 21.7098 28.4885 22.5 26.4994 22.5C24.9965 22.4999 23.5284 22.0483 22.2853 21.2037C21.0422 20.3592 20.0815 19.1606 19.5277 17.7635C18.974 16.3664 18.8527 14.8352 19.1796 13.3683C19.5066 11.9015 20.2667 10.5667 21.3614 9.537C21.503 9.40374 21.6663 9.25922 21.8447 9.10143C23.3566 7.76377 25.9466 5.47243 25.4994 1C31.4994 5 33.6944 8 29.6994 15C30.5664 15 31.8324 14.177 33.4994 12.53C33.7694 13.303 33.9994 14.134 33.9994 15C33.9994 16.9891 33.2092 18.8968 31.8027 20.3033ZM27.9624 14.009C30.4664 9.622 30.4504 7.485 27.2094 4.735H27.2084C26.7564 6.417 25.8724 7.879 24.6424 9.197C24.2974 9.566 23.9484 9.903 23.5244 10.283C23.5209 10.2861 23.5083 10.2973 23.4886 10.3148C23.3474 10.4402 22.8419 10.8895 22.7314 10.993C22.1115 11.5766 21.6356 12.2961 21.3411 13.0948C21.0466 13.8936 20.9415 14.7498 21.0342 15.5961C21.1268 16.4424 21.4147 17.2556 21.875 17.9717C22.3354 18.6878 22.9557 19.2873 23.6872 19.7229C24.4186 20.1585 25.2412 20.4184 26.0901 20.4821C26.9391 20.5458 27.7912 20.4115 28.5794 20.0899C29.3677 19.7682 30.0705 19.268 30.6325 18.6286C31.1946 17.9892 31.6005 17.228 31.8184 16.405C31.0834 16.8 30.3874 17 29.6994 17C28.1644 17 27.2014 15.342 27.9624 14.009ZM15.8706 5.45559C16.5171 5.06984 17.3253 5.07973 17.9621 5.48118L19.0294 6.15402C19.4966 6.44856 19.6366 7.06606 19.342 7.53325C19.0475 8.00044 18.43 8.14041 17.9628 7.84587L16.8955 7.17303L4.50391 14.5677V16.066L15.8593 9.25617C16.5155 8.86264 17.3387 8.878 17.9798 9.29574L18.542 9.66213C19.0048 9.96365 19.1354 10.5832 18.8339 11.0459C18.5324 11.5086 17.9129 11.6393 17.4501 11.3378L16.8879 10.9714L7.41297 16.6535H7.42676V30H13.1509V21.8515V20.8515H14.1509H19.5302H20.5302V21.8515V30H26.2543V25.9999C26.2543 25.4477 26.7021 24.9999 27.2543 24.9999C27.8066 24.9999 28.2543 25.4477 28.2543 25.9999V31V32H27.2543H19.5302H14.1509H6.42676H5.42676V31V17.8406C4.11156 18.5298 2.50391 17.5796 2.50391 16.066V14.5677C2.50391 13.8635 2.87428 13.2112 3.47902 12.8503L15.8706 5.45559ZM18.5302 30V22.8515H15.1509V30H18.5302Z" fill="url(#paint0_linear_4033_4885)"/>
<defs>
<linearGradient id="paint0_linear_4033_4885" x1="7.08321" y1="-4.06123" x2="40.4135" y2="16.1272" gradientUnits="userSpaceOnUse">
<stop stop-color="#439EF8"/>
<stop offset="1" stop-color="#041632"/>
</linearGradient>
</defs>
</svg>
