<svg width="48" height="48" viewBox="0 0 48 48" fill="none" xmlns="http://www.w3.org/2000/svg">
<path d="M4 42H44" stroke="#27272C" stroke-width="1.5"/>
<path d="M8 34.5V42H40V21H42M8 34.5L6 32.5M8 34.5L10 32.5M8 34.5V30.25M8 23.125V21H6" stroke="#27272C" stroke-width="1.5"/>
<path d="M40 21H43V17L24 7L5 17V21H8" stroke="#27272C" stroke-width="1.5"/>
<path d="M15 27L40 27" stroke="#27272C" stroke-width="1.5"/>
<path d="M11.7376 30.1192L10.9901 30.0587L10.9467 30.5942L11.4398 30.8075L11.7376 30.1192ZM4.26236 30.1192L4.56015 30.8075L5.05326 30.5942L5.00991 30.0587L4.26236 30.1192ZM12.4852 30.1797C12.495 30.0584 12.5 29.936 12.5 29.8125H11C11 29.8955 10.9966 29.9776 10.9901 30.0587L12.4852 30.1797ZM14.75 33.5625C14.75 31.7103 13.6311 30.1211 12.0354 29.4308L11.4398 30.8075C12.5062 31.2688 13.25 32.3297 13.25 33.5625H14.75ZM10.25 38.0625C12.7353 38.0625 14.75 36.0478 14.75 33.5625H13.25C13.25 35.2194 11.9069 36.5625 10.25 36.5625V38.0625ZM10.25 36.5625H5.75V38.0625H10.25V36.5625ZM1.25 33.5625C1.25 36.0478 3.26472 38.0625 5.75 38.0625V36.5625C4.09315 36.5625 2.75 35.2194 2.75 33.5625H1.25ZM3.96457 29.4308C2.36888 30.1211 1.25 31.7103 1.25 33.5625H2.75C2.75 32.3297 3.49378 31.2688 4.56015 30.8075L3.96457 29.4308ZM3.5 29.8125C3.5 29.936 3.50499 30.0584 3.5148 30.1797L5.00991 30.0587C5.00336 29.9776 5 29.8955 5 29.8125H3.5ZM8 25.3125C5.51472 25.3125 3.5 27.3272 3.5 29.8125H5C5 28.1556 6.34315 26.8125 8 26.8125V25.3125ZM12.5 29.8125C12.5 27.3272 10.4853 25.3125 8 25.3125V26.8125C9.65685 26.8125 11 28.1556 11 29.8125H12.5Z" fill="#27272C"/>
<path d="M23.56 38V31.5L24.13 32.09H22.08V31H24.86V38H23.56Z" fill="#27272C"/>
<path d="M21.35 22V21.13L24.13 18.49C24.3633 18.27 24.5367 18.0767 24.65 17.91C24.7633 17.7433 24.8367 17.59 24.87 17.45C24.91 17.3033 24.93 17.1667 24.93 17.04C24.93 16.72 24.82 16.4733 24.6 16.3C24.38 16.12 24.0567 16.03 23.63 16.03C23.29 16.03 22.98 16.09 22.7 16.21C22.4267 16.33 22.19 16.5133 21.99 16.76L21.08 16.06C21.3533 15.6933 21.72 15.41 22.18 15.21C22.6467 15.0033 23.1667 14.9 23.74 14.9C24.2467 14.9 24.6867 14.9833 25.06 15.15C25.44 15.31 25.73 15.54 25.93 15.84C26.1367 16.14 26.24 16.4967 26.24 16.91C26.24 17.1367 26.21 17.3633 26.15 17.59C26.09 17.81 25.9767 18.0433 25.81 18.29C25.6433 18.5367 25.4 18.8133 25.08 19.12L22.69 21.39L22.42 20.9H26.51V22H21.35Z" fill="#27272C"/>
</svg>
