<svg width="48" height="48" viewBox="0 0 48 48" fill="none" xmlns="http://www.w3.org/2000/svg">
<path d="M10.3947 6H7.5V21.9344M7.5 24.2951V21.9344M7.5 21.9344H15.0263M27.7632 6H22.5526M34.7105 42H40.5V29.6066M23.1316 29.6066H20.2368V31.9672M27.7632 29.6066H32.3947M40.5 29.6066V18.9836M40.5 29.6066H32.3947M20.2368 31.9672V42H27.7632L31.2632 38.5M20.2368 31.9672H7.5V29.6066L10.6066 26.5M22.5526 6H17.3421L13.5 9.8421M22.5526 6V18.9836M20.2368 21.9344H22.5526V18.9836M22.5526 18.9836H25.4474M30.0789 18.9836H32.3947M40.5 18.9836V6H34.7105L30.8684 9.8421M40.5 18.9836H32.3947M32.3947 18.9836V21.9344M32.3947 29.6066V26.6557" stroke="#27272C" stroke-width="1.5"/>
</svg>
