<svg width="36" height="36" viewBox="0 0 36 36" fill="none" xmlns="http://www.w3.org/2000/svg">
<path fill-rule="evenodd" clip-rule="evenodd" d="M11.6771 6C11.6771 4.89543 12.5726 4 13.6771 4H24.2894V6H13.6771V9.70383L22.354 9.70383V11.7038H13.6771C12.5726 11.7038 11.6771 10.8084 11.6771 9.70383V6ZM16.516 15.1264C16.516 14.0219 17.4114 13.1264 18.5159 13.1264H20.9023V15.1264H18.5159V18.8303L20.9023 18.8303V20.8303H18.5159C17.4114 20.8303 16.516 19.9348 16.516 18.8303V15.1264ZM4.00007 13.1264C2.89552 13.1264 2.00009 14.0218 2.00007 15.1264L2 18.8302C1.99998 19.9348 2.89542 20.8303 4 20.8303H13.6122C14.7168 20.8303 15.6122 19.9349 15.6122 18.8303L15.6123 15.1265C15.6123 14.0219 14.7169 13.1264 13.6123 13.1264H4.00007ZM4 18.8303L4.00007 15.1264H13.6123L13.6122 18.8303H4ZM11.6771 24.2533C11.6771 23.1487 12.5726 22.2533 13.6771 22.2533H24.2894V24.2533H13.6771V27.9571H24.2894V29.9571H13.6771C12.5726 29.9571 11.6771 29.0617 11.6771 27.9571V24.2533ZM26.7494 22.1458C25.6449 22.1458 24.7494 23.0412 24.7494 24.1458V29.3669C24.7494 30.2669 25.1862 30.9648 25.7997 31.4045C26.3837 31.823 27.106 32 27.7746 32C28.4433 32 29.1656 31.823 29.7495 31.4045C30.3631 30.9648 30.7999 30.2669 30.7999 29.3669V24.1458C30.7999 23.0412 29.9044 22.1458 28.7999 22.1458H28.7756V20.412H31.1712C31.3627 20.412 31.5784 20.3851 31.7977 20.3077C33.0665 19.8594 33.8062 18.9435 33.9666 17.7813C34.1116 16.7307 33.7665 15.6122 33.2346 14.6199L29.2885 5.53269L29.2885 5.53254L29.2793 5.50007L29.2772 5.49278L29.2771 5.4923C29.2733 5.47872 29.2681 5.45989 29.2628 5.44168C29.2397 5.36142 29.1835 5.16643 29.052 4.97107C28.8325 4.64508 28.5183 4.47475 28.2779 4.38708C28.0268 4.29547 27.7634 4.25887 27.5223 4.25887C27.2811 4.25887 27.0177 4.29548 26.7666 4.38708C26.5262 4.47476 26.212 4.64508 25.9925 4.97106C25.861 5.16642 25.8048 5.36141 25.7817 5.44168C25.7764 5.46009 25.7711 5.47913 25.7673 5.49275L25.7653 5.50007L25.756 5.53254L25.756 5.53269L21.7929 14.6589L21.7884 14.6695L21.784 14.6802C21.383 15.6652 21.1282 16.7574 21.2653 17.7637C21.4116 18.8379 22.0092 19.7834 23.1776 20.2732C23.4306 20.3792 23.6804 20.412 23.8936 20.412H26.7756V22.1458H26.7494ZM26.7756 18.412H23.9124C23.4947 18.2247 23.3067 17.9321 23.247 17.4938C23.1766 16.9767 23.3 16.264 23.6322 15.4446L27.5223 6.48638L31.4171 15.4555L31.4345 15.4957L31.4554 15.5343C31.9001 16.3535 32.0499 17.0403 31.9854 17.5078C31.9351 17.8723 31.7505 18.1953 31.1589 18.412H28.7756V15.6799H26.7756V18.412ZM26.7494 24.1458H28.7999V29.3669C28.7999 29.5557 28.7303 29.6744 28.5844 29.779C28.4089 29.9048 28.1186 30 27.7746 30C27.4307 30 27.1404 29.9048 26.9649 29.779C26.819 29.6744 26.7494 29.5557 26.7494 29.3669V24.1458Z" fill="url(#paint0_linear_4039_4977)"/>
<defs>
<linearGradient id="paint0_linear_4039_4977" x1="6.65264" y1="-0.571427" x2="38.2653" y2="20.9677" gradientUnits="userSpaceOnUse">
<stop stop-color="#439EF8"/>
<stop offset="1" stop-color="#041632"/>
</linearGradient>
</defs>
</svg>
