<svg width="36" height="36" viewBox="0 0 36 36" fill="none" xmlns="http://www.w3.org/2000/svg">
<path fill-rule="evenodd" clip-rule="evenodd" d="M26 6.24996C26 5.73291 26.1663 5.43541 26.3321 5.26961C26.5073 5.09441 26.7474 5 27 5C27.2527 5 27.4927 5.0944 27.6679 5.26959C27.8337 5.43538 28 5.73289 28 6.24996C28 6.66353 27.9099 6.7885 27.8921 6.81192C27.8646 6.84802 27.8114 6.89724 27.5992 6.99009C27.5797 6.9986 27.5533 7.00939 27.5214 7.02242L27.5213 7.02246C27.3349 7.09858 26.9605 7.25147 26.6819 7.47779C26.2399 7.83694 26 8.35176 26 9V9.5C26 10.0523 26.4477 10.5 27 10.5C27.5523 10.5 28 10.0523 28 9.5V9L28 8.99706C28.0145 8.98964 28.0318 8.98121 28.0526 8.97159C28.1152 8.94264 28.1565 8.92556 28.2096 8.90359C28.2565 8.88418 28.3127 8.86096 28.4008 8.8224C28.6886 8.69649 29.1354 8.48008 29.4829 8.02399C29.8401 7.55521 30 6.96141 30 6.24996C30 5.26705 29.6663 4.43956 29.0821 3.85537C28.5073 3.28058 27.7473 2.99999 27 3C26.2526 3.00001 25.4927 3.2806 24.9179 3.85539C24.3337 4.43958 24 5.26706 24 6.24996C24 6.80225 24.4477 7.24996 25 7.24996C25.5523 7.24996 26 6.80225 26 6.24996ZM22.1341 14.3245C22.1341 17.0212 19.9525 19.2017 17.2682 19.2017C14.584 19.2017 12.4023 17.0212 12.4023 14.3245C12.4023 11.6278 14.584 9.44731 17.2682 9.44731C19.9525 9.44731 22.1341 11.6278 22.1341 14.3245ZM24.1341 14.3245C24.1341 18.1227 21.0602 21.2017 17.2682 21.2017C13.4763 21.2017 10.4023 18.1227 10.4023 14.3245C10.4023 10.5263 13.4763 7.44731 17.2682 7.44731C21.0602 7.44731 24.1341 10.5263 24.1341 14.3245ZM6 32.5C6 28.2083 7.94751 24.9568 11.6676 22.8874H12.6693L12.6727 22.8883C12.6733 22.8885 12.674 22.8887 12.6747 22.8889C12.6763 22.8895 12.6783 22.8902 12.6807 22.8911C12.6937 22.8964 12.7143 22.9075 12.7383 22.9281C15.3106 25.1378 19.3194 25.0821 22.0577 22.9167C22.0767 22.9017 22.0927 22.8937 22.1026 22.89C22.1057 22.8889 22.108 22.8882 22.1095 22.8878L22.1113 22.8874H23.1128C26.3505 24.9839 28.5361 28.5157 28.5361 32.5H30.5361C30.5361 27.7513 27.9294 23.6169 24.1843 21.1986C23.858 20.9879 23.4855 20.8874 23.1187 20.8874H22.1098C21.6099 20.8874 21.1614 21.0757 20.8172 21.3479C18.7621 22.973 15.824 22.9422 14.0415 21.411C13.6904 21.1095 13.2144 20.8874 12.6711 20.8874H11.6632C11.3366 20.8874 11.0056 20.9674 10.7069 21.1333C6.35336 23.5504 4 27.4684 4 32.5H6ZM27 13C27.5523 13 28 12.5523 28 12C28 11.4477 27.5523 11 27 11C26.4477 11 26 11.4477 26 12C26 12.5523 26.4477 13 27 13Z" fill="url(#paint0_linear_4039_4988)"/>
<defs>
<linearGradient id="paint0_linear_4039_4988" x1="7.85824" y1="-1.81633" x2="37.6695" y2="14.1709" gradientUnits="userSpaceOnUse">
<stop stop-color="#439EF8"/>
<stop offset="1" stop-color="#041632"/>
</linearGradient>
</defs>
</svg>
