<svg width="21" height="22" viewBox="0 0 21 22" fill="none" xmlns="http://www.w3.org/2000/svg">
<path fill-rule="evenodd" clip-rule="evenodd" d="M10.3322 0.00266723C10.8078 0.0239947 11.3498 0.177966 11.7484 0.55261C11.8916 0.687176 12.0428 0.869907 12.1462 0.994868L12.1463 0.994972L12.1464 0.995088C12.1786 1.03402 12.2062 1.06733 12.2274 1.09181C12.3542 1.23811 12.4176 1.28263 12.453 1.29865C14.5328 2.24017 15.8813 3.66868 16.3917 5.28395C16.5904 5.91261 16.3534 6.52805 15.9626 6.91887L15.7659 7.1156C15.6186 7.2629 15.4477 7.38122 15.2622 7.46692V9.38004V9.4136L15.2592 9.44703C15.1326 10.8591 14.4726 11.9381 13.5281 12.6478C12.5986 13.3461 11.4283 13.6632 10.2826 13.6484C8.01915 13.6191 5.55787 12.254 5.16838 9.48448L5.16107 9.43252V9.38004V7.46652C4.97585 7.38086 4.8053 7.26267 4.65823 7.1156L4.49136 6.94874C4.06677 6.52414 3.85437 5.86914 4.07239 5.23257C4.59782 3.69837 5.76244 1.93517 7.85703 1.21513C7.93307 1.18899 8.03837 1.12064 8.22394 0.952514C8.25448 0.924841 8.29006 0.891513 8.32958 0.854493L8.32964 0.854438L8.3297 0.854382C8.47775 0.715692 8.68107 0.525224 8.88218 0.386062C9.31342 0.0876669 9.85336 -0.0188108 10.3322 0.00266723ZM6.66107 7.62816H13.7622V9.34498C13.6672 10.3137 13.2281 10.9969 12.627 11.4485C12.0043 11.9164 11.1722 12.1597 10.302 12.1485C8.54968 12.1258 6.93889 11.1117 6.66107 9.32495V7.62816ZM10.265 1.50116C10.0281 1.49053 9.83432 1.55132 9.73571 1.61955C9.71352 1.63491 9.69207 1.65074 9.67081 1.6673V4.29761H8.17081V2.69786C6.76528 3.25359 5.90913 4.49908 5.49147 5.71858C5.48186 5.74664 5.47986 5.81591 5.55202 5.88807L5.71889 6.05494C5.76577 6.10182 5.82936 6.12816 5.89566 6.12816H14.5285C14.5948 6.12816 14.6584 6.10182 14.7052 6.05494L14.902 5.85821C14.9347 5.82551 14.9519 5.79211 14.9588 5.76854C14.965 5.7474 14.9623 5.73847 14.9615 5.73595C14.6373 4.71028 13.7797 3.65994 12.2511 2.86715V4.29761H10.7511V1.6747C10.7415 1.66505 10.7315 1.6554 10.7211 1.64565C10.6613 1.58944 10.5054 1.51194 10.265 1.50116ZM5.1615 14.9495C2.75537 16.5516 1.5 18.9065 1.5 21.9299H0C0 18.0838 1.79153 15.0848 5.10912 13.2248C5.371 13.078 5.66092 13.0089 5.94564 13.0089H6.5716C7.04688 13.0089 7.46043 13.2046 7.76812 13.4567C9.13884 14.5796 11.3371 14.5974 12.9035 13.404C13.2044 13.1748 13.5944 13.0089 14.0319 13.0089H14.6588C14.9789 13.0089 15.3056 13.0961 15.5911 13.2826C18.4428 15.146 20.4225 18.3052 20.4225 21.9299H18.9225C18.9225 19.0785 17.4696 16.5278 15.2626 14.882V17.7683C15.4336 17.79 15.6286 17.8326 15.8157 17.9262C16.0766 18.0566 16.2821 18.2656 16.4075 18.5477C16.5213 18.8038 16.5528 19.0833 16.5528 19.3496V21.9299H15.0528V19.3496C15.0528 19.3113 15.0516 19.2796 15.0498 19.2537C15.0391 19.2525 15.0275 19.2514 15.0148 19.2503C14.8911 19.24 14.7374 19.2395 14.5126 19.2395H5.9115C5.68676 19.2395 5.53299 19.24 5.40934 19.2503C5.39665 19.2514 5.38501 19.2525 5.37435 19.2537C5.37256 19.2796 5.37134 19.3113 5.37134 19.3496V21.9299H3.87134V19.3496C3.87134 19.0833 3.9028 18.8038 4.01661 18.5477C4.14201 18.2656 4.34756 18.0566 4.60847 17.9262C4.79557 17.8326 4.99047 17.79 5.1615 17.7683V14.9495ZM13.7626 14.6349V17.7395H6.6615V14.5258C6.70676 14.5415 6.75987 14.5698 6.81755 14.617C8.75522 16.2044 11.6937 16.1758 13.7626 14.6349Z" fill="#27272C"/>
</svg>
