<svg width="20" height="20" viewBox="0 0 20 20" fill="none" xmlns="http://www.w3.org/2000/svg">
<path d="M9.45736 11.6667C9.45736 11.3226 9.51163 11.0205 9.62016 10.7601C9.72868 10.4998 9.86886 10.2673 10.0407 10.0628C10.2125 9.85821 10.3934 9.6676 10.5833 9.49093C10.7823 9.31427 10.9677 9.14226 11.1395 8.9749C11.3114 8.80753 11.4515 8.63087 11.5601 8.44491C11.6686 8.25895 11.7229 8.04974 11.7229 7.81729C11.7229 7.42678 11.5691 7.11065 11.2616 6.8689C10.9541 6.62715 10.5426 6.50628 10.0271 6.50628C9.52972 6.50628 9.09561 6.59926 8.72481 6.78522C8.36305 6.97118 8.06008 7.23617 7.81589 7.5802L6.5 6.70153C6.87984 6.17155 7.37726 5.75779 7.99225 5.46025C8.60724 5.15342 9.33527 5 10.1764 5C10.8366 5 11.4154 5.10228 11.9128 5.30683C12.4102 5.50209 12.7991 5.79033 13.0795 6.17155C13.3598 6.54347 13.5 6.99907 13.5 7.53835C13.5 7.91027 13.4412 8.2357 13.3236 8.51464C13.2151 8.79358 13.0704 9.03998 12.8895 9.25384C12.7177 9.45839 12.5323 9.65365 12.3333 9.83961C12.1344 10.0163 11.9444 10.1929 11.7636 10.3696C11.5917 10.5463 11.4516 10.7369 11.343 10.9414C11.2345 11.146 11.1802 11.3877 11.1802 11.6667H9.45736ZM10.3256 15C10.009 15 9.74677 14.8931 9.53876 14.6792C9.33979 14.4654 9.24031 14.2097 9.24031 13.9121C9.24031 13.6146 9.33979 13.3636 9.53876 13.159C9.74677 12.9451 10.009 12.8382 10.3256 12.8382C10.6421 12.8382 10.8999 12.9451 11.0988 13.159C11.2978 13.3636 11.3973 13.6146 11.3973 13.9121C11.3973 14.2097 11.2978 14.4654 11.0988 14.6792C10.8999 14.8931 10.6421 15 10.3256 15Z" fill="white"/>
<circle cx="10" cy="10" r="9" stroke="white" stroke-width="1.5"/>
</svg>
