<svg width="36" height="36" viewBox="0 0 36 36" fill="none" xmlns="http://www.w3.org/2000/svg">
<path fill-rule="evenodd" clip-rule="evenodd" d="M17.9999 5.62256C17.9704 5.62256 17.9463 5.63241 17.9288 5.64718C15.0705 8.06938 12.0897 8.68824 8.03722 8.76836C8.03194 8.76846 8.02879 8.76943 8.02646 8.77044C8.02357 8.7717 8.02075 8.77362 8.01851 8.77587L8.0166 8.77808V15.4586C8.0166 18.6029 8.45866 21.7738 9.90901 24.4255C11.3362 27.035 13.7866 29.2292 17.9999 30.3764C22.2132 29.2292 24.6636 27.035 26.0908 24.4255C27.5412 21.7738 27.9832 18.6029 27.9832 15.4586V8.77808L27.9813 8.77587C27.9791 8.77362 27.9763 8.7717 27.9734 8.77044C27.971 8.76943 27.9679 8.76846 27.9626 8.76836C23.9101 8.68824 20.9293 8.06938 18.071 5.64718C18.0536 5.63241 18.0294 5.62256 17.9999 5.62256ZM16.6358 4.12135C17.4206 3.45629 18.5792 3.45629 19.364 4.12135C21.7208 6.11851 24.163 6.69285 28.0021 6.76875C29.0841 6.79014 29.9832 7.66644 29.9832 8.77789V15.4586C29.9832 18.7532 29.5269 22.311 27.8455 25.3852C26.142 28.4999 23.2298 31.0276 18.5152 32.3089C18.18 32.4 17.8198 32.4 17.4847 32.3089C12.77 31.0276 9.85781 28.4999 8.15431 25.3852C6.4729 22.311 6.0166 18.7532 6.0166 15.4586V8.77789C6.0166 7.66644 6.91573 6.79014 7.99769 6.76875C11.8368 6.69285 14.2791 6.11851 16.6358 4.12135ZM23.5222 13.5096C23.9462 13.8635 24.0031 14.4941 23.6492 14.9181L18.4329 21.1686C17.6801 22.0706 16.3156 22.1325 15.4842 21.3023L12.4119 18.2346C12.0211 17.8443 12.0207 17.2112 12.4109 16.8204C12.8011 16.4296 13.4343 16.4291 13.8251 16.8193L16.8974 19.8871L22.1137 13.6367C22.4676 13.2126 23.0982 13.1558 23.5222 13.5096ZM18.737 9.17566C19.1102 8.7686 19.0828 8.13603 18.6758 7.76277C18.2687 7.38952 17.6361 7.41692 17.2629 7.82398C16.3709 8.79675 15.5818 9.35536 14.6917 9.67795C13.784 10.0069 12.6841 10.1226 11.1128 10.0621C9.99034 10.0189 8.99994 10.9026 8.99994 12.0759V13.9998C8.99994 14.5521 9.44765 14.9998 9.99994 14.9998C10.5522 14.9998 10.9999 14.5521 10.9999 13.9998V12.0759L10.9999 12.0757C11.0005 12.0749 11.0016 12.0735 11.0034 12.0719C11.0069 12.0686 11.0117 12.0655 11.017 12.0634C11.0218 12.0616 11.0277 12.0603 11.036 12.0606C12.7186 12.1254 14.1149 12.0143 15.3732 11.5583C16.6491 11.0958 17.6958 10.3111 18.737 9.17566ZM26.7155 18.6443C26.8477 18.1081 26.5202 17.5662 25.984 17.434C25.4478 17.3017 24.9059 17.6293 24.7737 18.1655C24.1678 20.6225 23.5623 22.3984 22.6139 23.7671C21.6912 25.0987 20.3921 26.116 18.2535 26.9323C17.7375 27.1292 17.4789 27.7072 17.6759 28.2231C17.8728 28.7391 18.4508 28.9977 18.9667 28.8008C21.4045 27.8703 23.0625 26.6314 24.2578 24.9062C25.4275 23.2181 26.101 21.1365 26.7155 18.6443Z" fill="url(#paint0_linear_499_22185)"/>
<defs>
<linearGradient id="paint0_linear_499_22185" x1="9.50125" y1="-1.07208" x2="37.3042" y2="12.7434" gradientUnits="userSpaceOnUse">
<stop stop-color="#439EF8"/>
<stop offset="1" stop-color="#041632"/>
</linearGradient>
</defs>
</svg>
