<svg width="36" height="36" viewBox="0 0 36 36" fill="none" xmlns="http://www.w3.org/2000/svg">
<path fill-rule="evenodd" clip-rule="evenodd" d="M6.99609 4.99634C5.89153 4.99634 4.99609 5.89177 4.99609 6.99634V28.9969C4.99609 30.1014 5.89152 30.9969 6.99609 30.9969H28.9966C30.1012 30.9969 30.9966 30.1014 30.9966 28.9969V6.99634C30.9966 5.89177 30.1012 4.99634 28.9966 4.99634H23.9965H16.663H6.99609ZM6.99609 6.99634L16.663 6.99634H23.9965H28.9966L28.9966 28.9969H6.99609V6.99634ZM24.9262 9.97815H18.9481V11.9781H22.512L11.9772 22.513V18.949H9.97722V24.9272V25.9272H10.9772L16.9554 25.9272V23.9272H13.3914L23.9262 13.3924V16.9563L25.9262 16.9563V10.9781V9.97815H24.9262Z" fill="url(#paint0_linear_4040_5031)"/>
<defs>
<linearGradient id="paint0_linear_4040_5031" x1="8.71045" y1="4.99634" x2="26.0175" y2="47.0052" gradientUnits="userSpaceOnUse">
<stop stop-color="#439EF8"/>
<stop offset="1" stop-color="#041632"/>
</linearGradient>
</defs>
</svg>
