<svg width="36" height="36" viewBox="0 0 36 36" fill="none" xmlns="http://www.w3.org/2000/svg">
<path fill-rule="evenodd" clip-rule="evenodd" d="M23 14C23 16.7614 20.7614 19 18 19C15.2386 19 13 16.7614 13 14C13 11.2386 15.2386 9 18 9C20.7614 9 23 11.2386 23 14ZM25 14C25 17.866 21.866 21 18 21C14.134 21 11 17.866 11 14C11 10.134 14.134 7 18 7C21.866 7 25 10.134 25 14ZM12.2846 22.698C8.48244 24.8078 6.49219 28.1243 6.49219 32.5001H4.49219C4.49219 27.3825 6.89015 23.3996 11.3254 20.943C11.6237 20.7778 11.9541 20.698 12.2803 20.698H13.3217C13.8642 20.698 14.3403 20.9194 14.6918 21.2217C16.5181 22.7926 19.5318 22.8235 21.6362 21.1583C21.9806 20.8857 22.4291 20.698 22.9283 20.698H23.9707C24.3371 20.698 24.709 20.7983 25.0347 21.0081C28.8508 23.4659 31.5075 27.6704 31.5075 32.5001H29.5075C29.5075 28.4365 27.2736 24.8347 23.9649 22.698H22.9302C22.9275 22.6985 22.908 22.7023 22.8773 22.7266C22.015 23.4089 21.0287 23.8856 20 24.1519V25C20 25.7403 19.5978 26.3866 19 26.7324V32.5H17V26.7324C16.4022 26.3866 16 25.7403 16 25V24.1272C15.0493 23.86 14.1552 23.3982 13.3876 22.7379C13.364 22.7177 13.3438 22.7067 13.3311 22.7016C13.3251 22.6992 13.3214 22.6983 13.3199 22.698H12.2846Z" fill="url(#paint0_linear_4040_5049)"/>
<defs>
<linearGradient id="paint0_linear_4040_5049" x1="8.42011" y1="2.83672" x2="36.3544" y2="20.4802" gradientUnits="userSpaceOnUse">
<stop stop-color="#439EF8"/>
<stop offset="1" stop-color="#041632"/>
</linearGradient>
</defs>
</svg>
