<svg width="36" height="36" viewBox="0 0 36 36" fill="none" xmlns="http://www.w3.org/2000/svg">
<path fill-rule="evenodd" clip-rule="evenodd" d="M24.6172 14.8333C24.6172 19.2515 21.0355 22.8333 16.6172 22.8333C12.1989 22.8333 8.61719 19.2515 8.61719 14.8333C8.61719 10.415 12.1989 6.83325 16.6172 6.83325C21.0355 6.83325 24.6172 10.415 24.6172 14.8333ZM21.6724 23.4632C20.1892 24.334 18.4615 24.8333 16.6172 24.8333C11.0943 24.8333 6.61719 20.3561 6.61719 14.8333C6.61719 9.3104 11.0943 4.83325 16.6172 4.83325C22.14 4.83325 26.6172 9.3104 26.6172 14.8333C26.6172 17.7917 25.3325 20.4501 23.2905 22.281L30.1509 30.527C30.5042 30.9516 30.4463 31.5821 30.0218 31.9353C29.5972 32.2885 28.9667 32.2307 28.6135 31.8061L21.6724 23.4632ZM19.6599 11.5472C18.5652 10.5573 16.8838 10.156 15.0719 10.6824C14.5416 10.8365 13.9867 10.5314 13.8327 10.0011C13.6786 9.47069 13.9836 8.91585 14.514 8.76179C16.9092 8.066 19.3313 8.55364 21.0013 10.0638C22.6903 11.591 23.4674 14.0316 22.8287 16.9368C22.7102 17.4762 22.1768 17.8173 21.6374 17.6988C21.098 17.5802 20.7568 17.0468 20.8754 16.5074C21.3847 14.1905 20.7358 12.52 19.6599 11.5472Z" fill="url(#paint0_linear_4039_4964)"/>
<defs>
<linearGradient id="paint0_linear_4039_4964" x1="10.0725" y1="0.370668" x2="37.1686" y2="14.4159" gradientUnits="userSpaceOnUse">
<stop stop-color="#439EF8"/>
<stop offset="1" stop-color="#041632"/>
</linearGradient>
</defs>
</svg>
