<svg width="36" height="36" viewBox="0 0 36 36" fill="none" xmlns="http://www.w3.org/2000/svg">
<path fill-rule="evenodd" clip-rule="evenodd" d="M26.5117 13C26.5117 14.1046 25.6163 15 24.5117 15C23.4072 15 22.5117 14.1046 22.5117 13C22.5117 11.8954 23.4072 11 24.5117 11C25.6163 11 26.5117 11.8954 26.5117 13ZM28.5117 13C28.5117 15.2091 26.7209 17 24.5117 17C22.3026 17 20.5117 15.2091 20.5117 13C20.5117 10.7909 22.3026 9 24.5117 9C26.7209 9 28.5117 10.7909 28.5117 13ZM19.1328 17.5647C19.1328 18.117 18.6851 18.5647 18.1328 18.5647C17.5805 18.5647 17.1328 18.117 17.1328 17.5647C17.1328 17.0124 17.5805 16.5647 18.1328 16.5647C18.6851 16.5647 19.1328 17.0124 19.1328 17.5647ZM18.1328 20.5647C19.1596 20.5647 20.0659 20.0489 20.6067 19.2622H21.5538C21.5562 19.2627 21.5618 19.2642 21.5711 19.2681C21.591 19.2766 21.6218 19.2942 21.6583 19.3261C23.4925 20.9304 26.232 20.8743 28.1443 19.3094C28.1734 19.2855 28.1978 19.2726 28.2133 19.2665C28.2204 19.2636 28.2248 19.2626 28.2267 19.2622H28.621C30.6374 20.7719 32.0594 23.6086 32.0594 26.5061H34.0594C34.0594 23.0103 32.3623 19.5466 29.7875 17.6372C29.4374 17.3777 29.0265 17.2622 28.6331 17.2622H28.2245C27.686 17.2622 27.2206 17.4809 26.8776 17.7616C25.6576 18.76 24.0137 18.7292 22.975 17.8207C22.629 17.518 22.1392 17.2622 21.5565 17.2622H21.1178C20.9661 15.7474 19.6876 14.5647 18.1328 14.5647C16.5781 14.5647 15.2995 15.7474 15.1479 17.2622H14.5999C14.0614 17.2622 13.596 17.4809 13.253 17.7616C12.033 18.76 10.3891 18.7292 9.3504 17.8207C9.00437 17.518 8.51461 17.2622 7.93192 17.2622H7.52306C7.17172 17.2622 6.80669 17.3542 6.48207 17.5599C3.4759 19.4651 1.94141 22.8057 1.94141 26.5061H3.94141C3.94141 23.3629 5.22466 20.7353 7.53228 19.2622H7.92923C7.93158 19.2627 7.93723 19.2642 7.94648 19.2681C7.96636 19.2766 7.99723 19.2942 8.0337 19.3261C9.86791 20.9304 12.6074 20.8743 14.5197 19.3094C14.5489 19.2855 14.5732 19.2726 14.5887 19.2665C14.5958 19.2636 14.6003 19.2626 14.6021 19.2622H15.6589C16.1997 20.0489 17.106 20.5647 18.1328 20.5647ZM14.1488 24.3898C14.4805 23.8278 14.9868 23.334 15.704 22.9092H15.7517C15.7551 22.9099 15.7637 22.912 15.7782 22.9176C15.8084 22.9295 15.8538 22.953 15.9131 22.9953C17.1838 23.9013 18.9402 23.8588 20.2327 22.9723C20.2788 22.9407 20.3144 22.9236 20.3374 22.9152C20.3484 22.9112 20.355 22.9097 20.3577 22.9092H20.4037C21.6208 23.7569 22.382 25.0066 22.382 26.506H24.382C24.382 24.2361 23.1966 22.4028 21.5105 21.2429C21.1712 21.0095 20.7835 20.9092 20.4165 20.9092H20.3543C19.841 20.9092 19.4109 21.1108 19.1016 21.3229C18.4498 21.77 17.6111 21.7497 17.0742 21.3668C16.7668 21.1476 16.3129 20.9092 15.7559 20.9092H15.6945C15.3675 20.9092 15.0248 20.9887 14.7132 21.1716C13.7487 21.7377 12.9649 22.4608 12.4264 23.3732C11.8865 24.2879 11.6256 25.3379 11.6256 26.506H13.6256C13.6256 25.6442 13.8151 24.9552 14.1488 24.3898ZM13.668 13C13.668 14.1046 12.7725 15 11.668 15C10.5634 15 9.66797 14.1046 9.66797 13C9.66797 11.8954 10.5634 11 11.668 11C12.7725 11 13.668 11.8954 13.668 13ZM15.668 13C15.668 15.2091 13.8771 17 11.668 17C9.45883 17 7.66797 15.2091 7.66797 13C7.66797 10.7909 9.45883 9 11.668 9C13.8771 9 15.668 10.7909 15.668 13Z" fill="url(#paint0_linear_4039_4956)"/>
<defs>
<linearGradient id="paint0_linear_4039_4956" x1="6.61123" y1="6.14187" x2="27.7637" y2="29.2784" gradientUnits="userSpaceOnUse">
<stop stop-color="#439EF8"/>
<stop offset="1" stop-color="#041632"/>
</linearGradient>
</defs>
</svg>
