<svg width="36" height="36" viewBox="0 0 36 36" fill="none" xmlns="http://www.w3.org/2000/svg">
<path fill-rule="evenodd" clip-rule="evenodd" d="M30.9727 5.58142C32.6295 5.58142 33.9727 6.92457 33.9727 8.58142V18.5169C33.9727 20.1738 32.6295 21.5169 30.9727 21.5169H29.5989L29.8037 24.5132C29.8319 24.9269 29.602 25.3151 29.2256 25.4891C28.8492 25.6631 28.4045 25.5868 28.1077 25.2972L27.0273 24.2434V25.354C27.0273 27.0109 25.6842 28.354 24.0273 28.354H11.7676L7.89229 32.1344C7.59547 32.4239 7.15077 32.5002 6.77439 32.3262C6.39802 32.1522 6.16807 31.764 6.19634 31.3503L6.40111 28.354H5.02734C3.37049 28.354 2.02734 27.0109 2.02734 25.354V12.4185C2.02734 10.7617 3.37049 9.41853 5.02734 9.41853H11.9727V8.58142C11.9727 6.92457 13.3158 5.58142 14.9727 5.58142H30.9727ZM13.9727 9.41853H24.0273C25.6842 9.41853 27.0273 10.7617 27.0273 12.4185V21.4494L27.6298 22.0371L27.5305 20.5851C27.5116 20.3087 27.6083 20.0368 27.7974 19.8343C27.9865 19.6319 28.2512 19.5169 28.5282 19.5169H30.9727C31.5249 19.5169 31.9727 19.0692 31.9727 18.5169V8.58142C31.9727 8.02914 31.5249 7.58142 30.9727 7.58142H14.9727C14.4204 7.58142 13.9727 8.02914 13.9727 8.58142V9.41853ZM4.02734 12.4185C4.02734 11.8662 4.47506 11.4185 5.02734 11.4185H24.0273C24.5796 11.4185 25.0273 11.8662 25.0273 12.4185V25.354C25.0273 25.9063 24.5796 26.354 24.0273 26.354H11.3607C11.0998 26.354 10.8492 26.456 10.6624 26.6382L8.37023 28.8742L8.46946 27.4222C8.48835 27.1458 8.39172 26.8739 8.2026 26.6714C8.01349 26.469 7.74885 26.354 7.47179 26.354H5.02734C4.47506 26.354 4.02734 25.9063 4.02734 25.354V12.4185ZM8 16C7.44772 16 7 16.4477 7 17C7 17.5523 7.44772 18 8 18L20 18C20.5523 18 21 17.5523 21 17C21 16.4477 20.5523 16 20 16L8 16ZM7.00001 21.0389C6.99762 20.4866 7.4434 20.037 7.99568 20.0346L15.9956 20C16.5479 19.9976 16.9975 20.4434 16.9999 20.9957C17.0023 21.548 16.5565 21.9976 16.0042 22L8.00432 22.0346C7.45204 22.037 7.0024 21.5912 7.00001 21.0389Z" fill="url(#paint0_linear_4039_4930)"/>
<defs>
<linearGradient id="paint0_linear_4039_4930" x1="6.67206" y1="1.19985" x2="37.4042" y2="23.0091" gradientUnits="userSpaceOnUse">
<stop stop-color="#439EF8"/>
<stop offset="1" stop-color="#041632"/>
</linearGradient>
</defs>
</svg>
