<svg width="36" height="36" viewBox="0 0 36 36" fill="none" xmlns="http://www.w3.org/2000/svg">
<path fill-rule="evenodd" clip-rule="evenodd" d="M23 13.9999C23 16.7613 20.7614 18.9999 18 18.9999C15.2386 18.9999 13 16.7613 13 13.9999C13 11.2385 15.2386 8.99988 18 8.99988C20.7614 8.99988 23 11.2385 23 13.9999ZM25 13.9999C25 17.8659 21.866 20.9999 18 20.9999C14.134 20.9999 11 17.8659 11 13.9999C11 10.1339 14.134 6.99988 18 6.99988C21.866 6.99988 25 10.1339 25 13.9999ZM12.2846 22.6979C8.48244 24.8076 6.49219 28.1242 6.49219 32.5H4.49219C4.49219 27.3823 6.89015 23.3995 11.3254 20.9429C11.6237 20.7777 11.9541 20.6979 12.2803 20.6979H13.3217C13.8642 20.6979 14.3403 20.9192 14.6918 21.2215C16.5181 22.7925 19.5318 22.8234 21.6362 21.1582C21.9806 20.8856 22.4291 20.6979 22.9283 20.6979H23.9707C24.3371 20.6979 24.709 20.7982 25.0347 21.008C28.8508 23.4658 31.5075 27.6703 31.5075 32.5H29.5075C29.5075 28.4364 27.2736 24.8346 23.9649 22.6979H22.9302C22.9275 22.6984 22.908 22.7021 22.8773 22.7265C22.015 23.4088 21.0287 23.8854 20 24.1518V24.9999C20 25.7402 19.5978 26.3865 19 26.7323V32.4999H17V26.7323C16.4022 26.3865 16 25.7402 16 24.9999V24.1271C15.0493 23.8599 14.1552 23.3981 13.3876 22.7378C13.364 22.7176 13.3438 22.7066 13.3311 22.7015C13.3251 22.6991 13.3214 22.6982 13.3199 22.6979H12.2846Z" fill="url(#paint0_linear_4039_4943)"/>
<defs>
<linearGradient id="paint0_linear_4039_4943" x1="8.42011" y1="2.8366" x2="36.3544" y2="20.4801" gradientUnits="userSpaceOnUse">
<stop stop-color="#439EF8"/>
<stop offset="1" stop-color="#041632"/>
</linearGradient>
</defs>
</svg>
