<svg width="36" height="36" viewBox="0 0 36 36" fill="none" xmlns="http://www.w3.org/2000/svg">
<path fill-rule="evenodd" clip-rule="evenodd" d="M19.2303 3.69252C18.5069 3.12756 17.4918 3.12756 16.7684 3.69252L14.294 5.62486L10.0416 5.11729C9.0004 4.99301 8.04 5.69397 7.84092 6.72347L7.20242 10.0252L4.35832 11.6448C3.4104 12.1846 3.06986 13.3844 3.59286 14.3417L5.59155 18L3.65911 21.537C3.08642 22.5853 3.55426 23.8985 4.66071 24.3485L7.20391 25.383L7.85449 29.2278C8.03244 30.2795 9.00438 31.0065 10.0635 30.8801L14.294 30.3751L16.7684 32.3074C17.4918 32.8724 18.5069 32.8724 19.2303 32.3074L21.7067 30.3735L26.1241 30.8808C27.2114 31.0057 28.1971 30.2335 28.3361 29.1479L28.8195 25.3729L31.338 24.3485C32.4444 23.8985 32.9123 22.5853 32.3396 21.537L30.4072 18L32.4058 14.3417C32.9288 13.3844 32.5883 12.1846 31.6404 11.6448L28.8206 10.0391L28.3487 6.81447C28.1923 5.7454 27.215 4.99386 26.1416 5.11713L21.7067 5.62646L19.2303 3.69252ZM17.9994 5.2688L20.4757 7.20274C20.8894 7.52579 21.4135 7.67328 21.9349 7.6134L26.3698 7.10407L26.8417 10.3287C26.9309 10.938 27.2958 11.4723 27.8309 11.7771L30.6507 13.3828L28.652 17.0411C28.3255 17.6387 28.3255 18.3613 28.652 18.9589L30.5845 22.4959L28.066 23.5203C27.3975 23.7922 26.9274 24.4031 26.8357 25.1189L26.3523 28.8939L21.9349 28.3866C21.4135 28.3267 20.8894 28.4742 20.4757 28.7972L17.9994 30.7312L15.525 28.7988C15.1089 28.4739 14.5812 28.3266 14.057 28.3892L9.82645 28.8942L9.17588 25.0493C9.06028 24.3661 8.59929 23.7914 7.95745 23.5304L5.41425 22.4959L7.34668 18.9589C7.67317 18.3613 7.67317 17.6387 7.34668 17.0411L5.348 13.3828L8.1921 11.7632C8.69943 11.4743 9.0552 10.9782 9.16604 10.405L9.80454 7.10319L14.057 7.61076C14.5812 7.67333 15.1089 7.52609 15.525 7.20113L17.9994 5.2688ZM18.324 22.5665L23.824 14.5665L22.176 13.4335L17.3389 20.4692L13.688 17.0077L12.312 18.459L16.812 22.7257L17.6611 23.5308L18.324 22.5665Z" fill="url(#paint0_linear_4039_4969)"/>
<defs>
<linearGradient id="paint0_linear_4039_4969" x1="7.60825" y1="-1.54138" x2="38.9693" y2="17.0545" gradientUnits="userSpaceOnUse">
<stop stop-color="#439EF8"/>
<stop offset="1" stop-color="#041632"/>
</linearGradient>
</defs>
</svg>
