<svg width="36" height="36" viewBox="0 0 36 36" fill="none" xmlns="http://www.w3.org/2000/svg">
<path fill-rule="evenodd" clip-rule="evenodd" d="M18.0009 5.62268C17.9714 5.62268 17.9472 5.63253 17.9298 5.6473C15.0715 8.0695 12.0907 8.68836 8.0382 8.76848C8.03292 8.76859 8.02977 8.76955 8.02744 8.77056C8.02454 8.77182 8.02173 8.77374 8.01949 8.77599L8.01758 8.7782V15.4588C8.01758 18.603 8.45964 21.7739 9.90999 24.4256C11.3372 27.0351 13.7876 29.2293 18.0009 30.3765C22.2142 29.2293 24.6646 27.0351 26.0918 24.4256C27.5421 21.7739 27.9842 18.603 27.9842 15.4588V8.7782L27.9823 8.77599C27.98 8.77374 27.9772 8.77182 27.9743 8.77056C27.972 8.76955 27.9689 8.76859 27.9636 8.76848C23.9111 8.68836 20.9303 8.0695 18.072 5.6473C18.0545 5.63253 18.0304 5.62268 18.0009 5.62268ZM16.6368 4.12147C17.4216 3.45642 18.5802 3.45642 19.365 4.12147C21.7217 6.11863 24.164 6.69297 28.0031 6.76887C29.0851 6.79026 29.9842 7.66657 29.9842 8.77801V15.4588C29.9842 18.7533 29.5279 22.3111 27.8465 25.3854C26.143 28.5 23.2308 31.0278 18.5161 32.3091C18.181 32.4001 17.8208 32.4001 17.4856 32.3091C12.771 31.0278 9.85879 28.5 8.15529 25.3854C6.47388 22.3111 6.01758 18.7533 6.01758 15.4588V8.77801C6.01758 7.66656 6.91671 6.79026 7.99866 6.76887C11.8378 6.69297 14.28 6.11863 16.6368 4.12147ZM23.5232 13.5098C23.9472 13.8636 24.0041 14.4942 23.6502 14.9183L18.4339 21.1687C17.6811 22.0707 16.3166 22.1326 15.4852 21.3025L12.4129 18.2347C12.0221 17.8445 12.0216 17.2113 12.4119 16.8205C12.8021 16.4297 13.4353 16.4292 13.8261 16.8195L16.8984 19.8872L22.1147 13.6368C22.4686 13.2128 23.0992 13.1559 23.5232 13.5098ZM18.738 9.17578C19.1112 8.76872 19.0838 8.13615 18.6768 7.7629C18.2697 7.38964 17.6371 7.41704 17.2639 7.8241C16.3719 8.79687 15.5828 9.35548 14.6927 9.67807C13.7849 10.0071 12.6851 10.1227 11.1138 10.0622C9.99132 10.0191 9.00092 10.9027 9.00092 12.076V13.9999C9.00092 14.5522 9.44863 14.9999 10.0009 14.9999C10.5532 14.9999 11.0009 14.5522 11.0009 13.9999V12.076L11.0009 12.0758C11.0015 12.075 11.0026 12.0737 11.0043 12.072C11.0079 12.0687 11.0126 12.0656 11.018 12.0635C11.0228 12.0617 11.0287 12.0604 11.0369 12.0608C12.7196 12.1255 14.1159 12.0144 15.3742 11.5584C16.6501 11.096 17.6968 10.3112 18.738 9.17578ZM26.7165 18.6444C26.8487 18.1082 26.5212 17.5663 25.985 17.4341C25.4488 17.3019 24.9069 17.6294 24.7747 18.1656C24.1688 20.6226 23.5633 22.3985 22.6149 23.7672C21.6922 25.0988 20.3931 26.1161 18.2545 26.9324C17.7385 27.1293 17.4799 27.7073 17.6768 28.2233C17.8738 28.7392 18.4517 28.9979 18.9677 28.8009C21.4055 27.8704 23.0634 26.6315 24.2588 24.9063C25.4285 23.2182 26.102 21.1366 26.7165 18.6444Z" fill="url(#paint0_linear_4039_4936)"/>
<defs>
<linearGradient id="paint0_linear_4039_4936" x1="9.50222" y1="-1.07196" x2="37.3052" y2="12.7435" gradientUnits="userSpaceOnUse">
<stop stop-color="#439EF8"/>
<stop offset="1" stop-color="#041632"/>
</linearGradient>
</defs>
</svg>
